<?xml version="1.0" encoding="UTF-8"?>
<!DOCTYPE svg PUBLIC "-//W3C//DTD SVG 1.1//EN" "http://www.w3.org/Graphics/SVG/1.1/DTD/svg11.dtd">
<!-- Creator: CorelDRAW 2018 (64-Bit Evaluation Version) -->
<svg xmlns="http://www.w3.org/2000/svg" xml:space="preserve" width="2.3622in" height="1.5748in" version="1.1" style="shape-rendering:geometricPrecision; text-rendering:geometricPrecision; image-rendering:optimizeQuality; fill-rule:evenodd; clip-rule:evenodd"
viewBox="0 0 2362.2 1574.8"
 xmlns:xlink="http://www.w3.org/1999/xlink">
 <defs>
  <style type="text/css">
   <![CDATA[
    .fil0 {fill:#727376}
    .fil1 {fill:#ED3237}
   ]]>
  </style>
 </defs>
 <g id="Layer_x0020_1">
  <metadata id="CorelCorpID_0Corel-Layer"/>
  <g id="_2654986629648">
   <path class="fil0" d="M464.46 959.35c-33.81,0 -69.13,-14.52 -93.15,-36.43 -78.44,-71.54 -38.3,-226.64 93.15,-226.64 142.26,0 175.28,197.11 53.43,249.74 -10.23,4.42 -41.7,13.32 -53.43,13.32zm-215.95 -133.5l-51.04 0 0 -160.98c0,-43.67 22.69,-65.5 52.31,-81.19 94.47,-50.02 208.03,-87.65 324.62,-87.65l620.36 0 0 329.81 -530.06 0c0,-63.48 -26.12,-115.07 -65.78,-150.17 -59.93,-53.03 -151.26,-68.59 -226.2,-31.89 -54,26.44 -101.11,84.19 -110.88,144.33 -3.05,18.8 4.5,37.72 -13.32,37.72zm1719.74 -231.65l98.16 0c0,151.53 14.49,166.74 -45.84,193.2 1.63,16.35 2.21,33.51 2.21,52.08 0,9.07 -0.67,18.46 -1.93,27.99 17.98,-7.39 34.09,-14.56 44.33,-19.28 38.94,-17.94 75.82,-61.76 75.82,-116.57l0 -270.92c0,-42.46 -49.07,-41.89 -87.06,-46.44 -19.84,-2.37 -163.39,-20.98 -177.15,-27.02l-42 -24.75c-199.6,-103.74 -343.78,-141.3 -596.86,-141.3 -113.96,0 -241.5,21.98 -326.41,50.51 -49.38,16.59 -91.9,31.6 -136.85,51.62l-185.74 96.95c-23.11,5.66 -64.05,4.39 -86.46,7.78 -101.03,15.26 -269.94,57.46 -339.45,131.71 -9.82,10.49 -32.32,44.48 -32.32,61.91l0 255.21c0,23.32 34.76,19.75 58.88,19.65 27.48,-0.12 54.98,-0.01 82.46,-0.01 7.57,32.47 39.44,71.94 63.34,89.79 141.89,106.02 296.52,0.37 317.52,-89.79l748.52 0c-4.69,-22.15 -6.59,-45.08 -7.06,-70.67l-125.02 0 0 -329.81 357.3 0c33.65,0 46.05,-24.45 63.8,-42.21 16.12,-16.11 42.53,-38.84 53.99,-55.95 22.7,12.01 44.67,23.39 66.75,35.33 75.11,40.62 41.23,26.85 160.76,43.41 29.12,4.03 62.86,11.56 94.45,11.56l0 35.34 -98.16 0 0 70.68zm-773.49 -298.41l0 125.65 -451.53 0c14.94,-12.99 78.02,-39.12 95.35,-46.01 75.69,-30.08 142.65,-51.39 225.49,-65.06 35.67,-5.88 88.46,-14.58 130.69,-14.58zm420.12 125.65l-345.52 0 0 -125.65c145.74,0 190.48,6.48 325.07,44.01 12.45,3.48 24.25,7.48 38.66,12.39 15.73,5.36 24.92,10.6 40.69,14.27 -6.66,9.95 -46.96,54.97 -58.9,54.97z"/>
   <path class="fil1" d="M1472 829.83c0,-166.83 174.5,-285.28 331.71,-214.73 181.95,81.65 188.23,341.73 1.19,428.91 -60.42,28.16 -132.22,27.92 -193.21,0.55 -53.02,-23.8 -93.61,-64.84 -118.17,-117.53 -12.35,-26.5 -21.52,-66.07 -21.52,-97.2zm-78.57 -13.97c0,57.08 5.39,100.32 29.68,148.41 17.75,35.16 21.66,39.64 43.64,68.1 25.15,32.56 69.13,63.18 106.51,82.05 97.04,49 227.86,36.41 315.29,-26.93 31.22,-22.62 52.46,-44.25 75.33,-74.82 31.19,-41.69 58.1,-111.5 58.1,-168.88 0,-56.88 -5.48,-100.5 -29.68,-148.41 -19.41,-38.44 -33.1,-58.41 -62.42,-87.73 -53.59,-53.59 -129.85,-92.1 -209.95,-92.1 -56.26,0 -99.9,6.07 -146.67,29.68 -35.35,17.85 -39.43,21.5 -68.1,43.64l-37.67 37.41c-22.16,28.36 -27,34.67 -44.38,69.1 -14.12,27.96 -29.68,78.6 -29.68,120.48z"/>
   <path class="fil1" d="M1904.99 1137.11l103.24 104.52c1.46,1.45 2.09,2.13 3.46,3.52l43.65 43.65c0.26,0.25 0.62,0.62 0.87,0.87 0.25,0.25 0.62,0.62 0.87,0.87 0.26,0.25 0.63,0.61 0.88,0.86l40.17 40.15c15.14,13.87 32.99,20.94 50.62,22.05l9.77 0c38.3,-2.35 72.95,-32.65 72.95,-82.06 0,-16.59 -7.03,-32.43 -13.92,-41.95 -2.53,-3.5 -3.63,-4.08 -6.49,-7.48l-21.06 -22.59c-14.43,-14.43 -165.31,-167.07 -173.29,-172.41 -4.52,3.31 -7.41,9.73 -11.21,14.98 -4.17,5.77 -7.61,10.47 -12.03,15.91l-26.06 29.8c-2.6,2.59 -4.26,4.53 -7.08,6.89 -17.11,14.31 -36.05,32.2 -55.35,42.42z"/>
   <path class="fil1" d="M1524.38 819.35l0 10.48 52.38 0c0,-7.31 2.19,-21.1 3.59,-27.83 12.43,-59.75 68.09,-103.11 127.35,-103.11l0 -52.38c-72.99,0 -133.33,40.13 -165.29,103.59 -8.6,17.08 -18.04,44.68 -18.04,69.26z"/>
   <path class="fil1" d="M809.85 411l366.7 0 0 -102.04c-34.3,0 -77.17,7.07 -106.14,11.85 -67.28,11.1 -121.66,28.4 -183.13,52.83 -14.07,5.59 -65.3,26.81 -77.43,37.36z"/>
   <path class="fil1" d="M1294.2 310.15l0 102.04 280.6 0c9.7,0 42.42,-36.56 47.83,-44.64 -12.81,-2.98 -20.28,-7.24 -33.05,-11.59 -11.7,-3.99 -21.28,-7.24 -31.39,-10.06 -109.3,-30.48 -145.63,-35.74 -263.99,-35.74z"/>
  </g>
 </g>
</svg>
