<?xml version="1.0" encoding="UTF-8"?>
<!DOCTYPE svg PUBLIC "-//W3C//DTD SVG 1.1//EN" "http://www.w3.org/Graphics/SVG/1.1/DTD/svg11.dtd">
<!-- Creator: CorelDRAW 2018 (64-Bit Evaluation Version) -->
<svg xmlns="http://www.w3.org/2000/svg" xml:space="preserve" width="1.1811in" height="1.1811in" version="1.1" style="shape-rendering:geometricPrecision; text-rendering:geometricPrecision; image-rendering:optimizeQuality; fill-rule:evenodd; clip-rule:evenodd"
viewBox="0 0 1181.1 1181.1"
 xmlns:xlink="http://www.w3.org/1999/xlink">
 <defs>
  <style type="text/css">
   <![CDATA[
    .fil3 {fill:#FEFEFE}
    .fil2 {fill:#96989A}
    .fil1 {fill:#ED3237}
    .fil0 {fill:#96989A;fill-rule:nonzero}
   ]]>
  </style>
 </defs>
 <g id="Layer_x0020_1">
  <metadata id="CorelCorpID_0Corel-Layer"/>
  <g id="_2542271783024">
   <path class="fil0" d="M867.01 123.91c-3.83,-2.95 -7.69,-5.84 -11.61,-8.68l-8.12 11.27c3.8,2.77 7.55,5.56 11.27,8.43l8.46 -11.02z"/>
   <path class="fil0" d="M889.41 142.38c-3.63,-3.19 -7.33,-6.38 -11.07,-9.43l-8.77 10.76c3.46,3.07 7.17,6.02 10.68,9.11l9.17 -10.44z"/>
   <path class="fil0" d="M965.89 229.3c-13.31,-19.96 -28.86,-39.12 -45.23,-56.65l-10.11 9.53c15.85,16.91 30.97,35.61 43.83,54.89l11.51 -7.77z"/>
   <path class="fil0" d="M995.2 279.34c-2.16,-4.34 -4.58,-8.58 -6.73,-12.89l-12.17 6.71c2.22,4.11 4.42,8.25 6.5,12.44l12.4 -6.26z"/>
   <path class="fil0" d="M1007.38 305.66c-1.89,-4.45 -3.84,-8.87 -5.88,-13.25l-12.59 5.87c1.97,4.26 3.86,8.54 5.7,12.87l12.76 -5.48z"/>
   <path class="fil0" d="M1038.49 417.2c-3.43,-23.91 -8.83,-47.65 -16.07,-70.69l-13.24 4.2c7.02,22.26 12.26,45.39 15.57,68.49l13.74 -2.01z"/>
   <path class="fil0" d="M1043.08 475c-0.08,-4.83 -0.23,-9.67 -0.46,-14.5l-13.87 0.7c0.24,4.68 0.37,9.38 0.44,14.06l13.89 -0.27z"/>
   <path class="fil0" d="M1042.63 504.01c0.21,-4.83 0.37,-9.66 0.46,-14.5l-13.89 -0.18c-0.09,4.7 -0.23,9.37 -0.44,14.07l13.87 0.61z"/>
   <path class="fil0" d="M1022.44 618.02c7.26,-23.31 12.53,-46.54 16.07,-70.7l-13.76 -1.92c-3.34,23.27 -8.58,46.06 -15.57,68.49l13.26 4.13z"/>
   <path class="fil0" d="M1001.52 672.13c2.03,-4.39 3.98,-8.81 5.88,-13.26l-12.8 -5.41c-1.84,4.32 -3.74,8.6 -5.7,12.87l12.62 5.8z"/>
   <path class="fil0" d="M988.49 698.07c2.34,-4.21 4.57,-8.58 6.74,-12.89l-12.44 -6.18c-2.09,4.15 -4.24,8.38 -6.5,12.43l12.2 6.64z"/>
   <path class="fil0" d="M698.38 921.96c4.7,-1.15 9.37,-2.37 14.03,-3.67l-3.79 -13.36c-4.53,1.26 -9.06,2.44 -13.62,3.56l3.38 13.47z"/>
   <path class="fil0" d="M669.96 927.94c4.76,-0.81 9.51,-1.78 14.24,-2.76l-2.87 -13.59c-4.59,0.95 -9.2,1.88 -13.81,2.67l2.44 13.68z"/>
   <path class="fil0" d="M554.34 933.47c24.11,1.85 48.36,1.95 72.46,-0.01l-1.14 -13.84c-23.38,1.9 -46.89,1.8 -70.28,0l-1.05 13.85z"/>
   <path class="fil0" d="M496.94 925.2c4.74,0.98 9.48,1.91 14.24,2.76l2.35 -13.69c-4.62,-0.81 -9.21,-1.72 -13.81,-2.67l-2.79 13.61z"/>
   <path class="fil0" d="M468.72 918.31c4.67,1.29 9.33,2.5 14.03,3.67l3.28 -13.5c-4.56,-1.13 -9.08,-2.31 -13.61,-3.56l-3.71 13.39z"/>
   <path class="fil0" d="M362.13 873.12c21.01,12.34 42.64,22.61 65.31,31.5l4.94 -12.98c-21.87,-8.51 -43,-18.63 -63.25,-30.52l-7 12z"/>
   <path class="fil0" d="M185.87 685.24c2.17,4.34 4.58,8.58 6.74,12.89l12.17 -6.71c-2.23,-4.11 -4.41,-8.26 -6.5,-12.44l-12.4 6.26z"/>
   <path class="fil0" d="M173.7 658.93c1.89,4.45 3.84,8.87 5.88,13.25l12.59 -5.87c-1.97,-4.26 -3.87,-8.54 -5.7,-12.87l-12.76 5.48z"/>
   <path class="fil0" d="M142.58 547.39c3.34,23.74 8.85,47.83 16.07,70.69l13.24 -4.2c-7,-22.08 -12.35,-45.56 -15.57,-68.49l-13.74 2.01z"/>
   <path class="fil0" d="M137.99 489.58c0.08,4.83 0.23,9.67 0.46,14.5l13.87 -0.7c-0.24,-4.68 -0.37,-9.38 -0.44,-14.06l-13.89 0.27z"/>
   <path class="fil0" d="M138.44 460.57c-0.22,4.83 -0.37,9.66 -0.46,14.5l13.89 0.18c0.09,-4.7 0.23,-9.37 0.44,-14.06l-13.87 -0.61z"/>
   <path class="fil0" d="M158.63 346.57c-7.27,23.17 -12.57,46.67 -16.07,70.7l13.76 1.92c3.29,-23.14 8.58,-46.2 15.57,-68.49l-13.26 -4.13z"/>
   <path class="fil0" d="M179.54 292.46c-2.02,4.39 -3.98,8.8 -5.87,13.26l12.8 5.41c1.84,-4.32 3.74,-8.6 5.7,-12.86l-12.62 -5.8z"/>
   <path class="fil0" d="M192.58 266.51c-2.3,4.27 -4.57,8.56 -6.74,12.89l12.44 6.18c2.09,-4.17 4.26,-8.3 6.48,-12.4l-12.18 -6.67z"/>
   <path class="fil0" d="M589.39 29.68c95.21,0 183.56,29.41 256.45,79.62l-17.92 4.73c-68.67,-44.57 -150.57,-70.46 -238.54,-70.46 -121.15,0 -230.83,49.11 -310.22,128.5 -30.26,30.26 -56.11,64.93 -76.53,102.94l-15.96 0.49c21.61,-42 49.59,-80.17 82.67,-113.25 81.9,-81.9 195.06,-132.57 320.04,-132.57zm408.44 647.84c-22.3,46.56 -52.31,88.72 -88.4,124.8 -51.64,51.64 -115.71,90.86 -187.33,112.79l0.85 -14.82c67.44,-21.53 127.8,-58.91 176.67,-107.79 32.2,-32.2 59.41,-69.37 80.39,-110.28l17.83 -4.7zm-602.53 213.75c-47.02,-22.35 -89.57,-52.57 -125.95,-88.95 -34.87,-34.87 -64.06,-75.4 -86.11,-120.09l15.3 -0.47c21.01,41.09 48.31,78.43 80.63,110.74 33.95,33.95 73.44,62.35 117,83.76l-0.86 15.01z"/>
  </g>
  <g id="_2576971463056">
   <path class="fil0" d="M298.54 234.85c-2.64,3.13 -5.23,6.27 -7.78,9.47l9.2 7.3c2.48,-3.1 4.99,-6.16 7.56,-9.19l-8.98 -7.57z"/>
   <path class="fil0" d="M315.02 216.65c-2.83,2.94 -5.67,5.94 -8.4,8.98l8.76 7.83c2.72,-2.8 5.37,-5.82 8.11,-8.67l-8.46 -8.15z"/>
   <path class="fil0" d="M391.4 155.41c-17.38,10.47 -34.17,22.86 -49.61,36.02l7.65 8.91c14.9,-12.73 31.28,-24.78 48.07,-34.9l-6.12 -10.03z"/>
   <path class="fil0" d="M434.81 132.59c-3.75,1.65 -7.43,3.54 -11.15,5.19l5.19 10.54c3.56,-1.72 7.14,-3.41 10.76,-5l-4.81 -10.72z"/>
   <path class="fil0" d="M457.51 123.32c-3.83,1.43 -7.64,2.9 -11.42,4.45l4.46 10.87c3.68,-1.5 7.37,-2.93 11.09,-4.32l-4.13 -10.99z"/>
   <path class="fil0" d="M552.94 101.36c-20.33,1.97 -40.59,5.61 -60.33,10.84l3.04 11.35c19.07,-5.07 38.81,-8.59 58.46,-10.5l-1.17 -11.69z"/>
   <path class="fil0" d="M601.95 99.73c-4.09,-0.12 -8.18,-0.18 -12.26,-0.17l0.05 11.74c3.96,-0.02 7.94,0.05 11.9,0.17l0.31 -11.74z"/>
   <path class="fil0" d="M626.43 101.24c-4.07,-0.37 -8.14,-0.69 -12.23,-0.95l-0.69 11.72c3.96,0.26 7.91,0.56 11.87,0.92l1.06 -11.69z"/>
   <path class="fil0" d="M721.95 122.71c-19.41,-7.04 -38.83,-12.39 -59.1,-16.31l-2.15 11.55c19.52,3.72 38.57,9.04 57.25,15.81l4 -11.04z"/>
   <path class="fil0" d="M766.85 142.48c-3.63,-1.88 -7.29,-3.7 -10.97,-5.48l-5.07 10.6c3.58,1.72 7.12,3.49 10.65,5.32l5.39 -10.44z"/>
   <path class="fil0" d="M966.14 408.24c-0.79,-4.02 -1.63,-8.01 -2.56,-11.99l-11.43 2.68c0.88,3.87 1.7,7.74 2.48,11.64l11.51 -2.33z"/>
   <path class="fil0" d="M970.09 432.48c-0.5,-4.05 -1.13,-8.1 -1.78,-12.13l-11.59 1.89c0.63,3.91 1.23,7.84 1.72,11.77l11.65 -1.53z"/>
   <path class="fil0" d="M970.28 530.36c2.5,-20.29 3.52,-40.78 2.8,-61.21l-11.74 0.43c0.7,19.82 -0.3,39.69 -2.72,59.37l11.66 1.42z"/>
   <path class="fil0" d="M961.07 578.53c1.01,-3.97 1.98,-7.93 2.88,-11.93l-11.48 -2.52c-0.87,3.87 -1.81,7.71 -2.79,11.56l11.39 2.88z"/>
   <path class="fil0" d="M954.15 602.09c1.27,-3.89 2.48,-7.78 3.65,-11.71l-11.27 -3.3c-1.13,3.8 -2.3,7.58 -3.54,11.35l11.16 3.65z"/>
   <path class="fil0" d="M723.6 841.25c3.83,-1.43 7.64,-2.9 11.42,-4.45l-4.47 -10.86c-3.68,1.5 -7.37,2.93 -11.09,4.32l4.13 11z"/>
   <path class="fil0" d="M628.17 863.21c20.19,-1.9 40.74,-5.63 60.34,-10.84l-3.04 -11.34c-18.93,5.05 -38.96,8.66 -58.46,10.5l1.16 11.69z"/>
   <path class="fil0" d="M579.17 864.85c4.09,0.12 8.17,0.18 12.26,0.17l-0.06 -11.74c-3.96,0.02 -7.94,-0.05 -11.9,-0.17l-0.31 11.74z"/>
   <path class="fil0" d="M554.68 863.34c4.07,0.37 8.14,0.69 12.22,0.94l0.69 -11.72c-3.96,-0.26 -7.91,-0.56 -11.86,-0.92l-1.06 11.7z"/>
   <path class="fil0" d="M459.16 841.86c19.29,7.04 38.93,12.43 59.09,16.31l2.16 -11.55c-19.42,-3.68 -38.69,-9.04 -57.25,-15.81l-4 11.04z"/>
   <path class="fil0" d="M414.26 822.1c3.63,1.88 7.28,3.7 10.97,5.48l5.07 -10.6c-3.58,-1.72 -7.12,-3.49 -10.65,-5.31l-5.39 10.44z"/>
   <path class="fil0" d="M208.18 465.71c3.69,-80.43 31.96,-153.92 77.2,-213.55l3.3 15.32c-40.31,56.28 -65.36,124.46 -68.77,198.76 -4.7,102.34 32.53,196.89 96.52,267.04 24.39,26.73 52.67,49.91 83.99,68.64l-0.2 13.5c-34.64,-19.88 -65.8,-45 -92.46,-74.22 -66.01,-72.36 -104.42,-169.91 -99.57,-275.48zm563.09 -319.91c38.46,20.64 72.91,47.63 102,79.52 41.62,45.63 72.26,101.27 88.01,162.62l-12.49 -1.29c-15.57,-57.8 -44.81,-110.24 -84.2,-153.41 -25.95,-28.44 -56.3,-52.87 -90.04,-72.18l-3.28 -15.25zm157.2 517.26c-20.7,38.85 -47.88,73.63 -80.02,102.94 -30.8,28.1 -66.17,51.19 -104.78,68.09l0.2 -12.94c35.52,-16.16 68.12,-37.77 96.67,-63.81 29.99,-27.36 55.52,-59.62 75.29,-95.58l12.65 1.31z"/>
  </g>
  <circle class="fil1" cx="590.54" cy="482.29" r="319.29"/>
  <path class="fil2" d="M514.1 1072.07l0 38.02 75.34 46.35 75.34 -46.35 0 -38.02 -75.34 46.35 -75.34 -46.35zm0 -61.46l0 38.02 75.34 46.35 75.34 -46.35 0 -38.02 -75.34 46.35 -75.34 -46.35z"/>
  <g id="_2541768666080">
   <g>
    <path class="fil3" d="M545.29 386.67l0 14.19c0,2.17 2.21,3.96 3.83,4.74 4.42,2.15 9.22,1.41 13.98,1.13 -0.05,-2.37 -2.08,-7.72 1,-13.12 6.4,-11.2 20.6,-11.61 27.48,-2.41 2.81,3.75 4.68,10.48 2.54,14.94 11.29,0 22.32,-0.67 33.66,-0.66 3.23,0 5.17,-0.34 8.25,-0.33 2.81,0.01 5.8,0.09 8.59,0.01l8.24 -0.34c2.77,0 6,0.19 8.25,-0.33 0,-7.76 0.2,-9.44 3.76,-14.06 1.14,-1.48 3.27,-2.98 5.03,-3.88 9.14,-4.66 19.89,0.19 22.85,9.39 0.42,1.31 0.61,1.96 0.72,3.59l-0.02 3.96c5.82,-0.48 10.23,-6.13 10.23,-12.54 0,-7.25 -0.2,-4.43 -1.51,-9.38 -0.63,-2.38 -0.57,-5.04 -0.85,-7.73 -0.76,-7.32 -0.37,-11.27 -5.89,-11.27 -0.67,-1.27 -1.02,-1.91 -1.92,-3.03l-5.62 -4.94c-1.06,-0.85 -1.81,-1.63 -3.02,-2.26 0,-6.41 -1.69,-4.59 -8.28,-5.91 -19.83,-3.98 -44.07,-8.07 -63.8,-0.5 -1.12,0.43 -1.96,0.71 -2.88,1.08 -3.37,1.36 -5.5,2.64 -8.42,4.12l-10.11 6.39c-1.67,1.25 -3.3,2.39 -4.77,3.81 -2.74,2.64 -7.72,3.37 -12.15,4.35 -6.75,1.48 -19.8,3.6 -23.76,9.56 -0.92,1.38 -0.02,0.78 -1.63,2.34 -1.71,1.66 -2.39,3.29 -2.89,5.69 -0.09,0.43 -0.19,0.93 -0.41,1.57 -0.26,0.8 -0.5,0.85 -0.5,1.81z"/>
    <path class="fil3" d="M564.76 399.87l0 2.31c0,6.39 6.48,12.87 12.87,12.87 5.09,0 7.78,-0.88 11.31,-4.53 5.31,-5.5 4.56,-14.74 -0.49,-19.49 -5.6,-5.26 -13.49,-5.16 -19.26,-0.27 -2.19,1.85 -4.43,5.9 -4.43,9.11z"/>
    <path class="fil3" d="M663.42 399.87l0 2.31c0,6.41 6.5,12.87 12.87,12.87l1.98 0c6.39,0 12.87,-6.48 12.87,-12.87 0,-3.1 0.11,-4.62 -1.42,-7.49 -4.41,-8.24 -14.7,-10.16 -21.92,-3.97 -2.07,1.77 -4.38,5.88 -4.38,9.15z"/>
   </g>
   <path class="fil3" d="M424.48 544.36l0 -74.35 82.69 0 0 79.22c0,5.92 -1.91,11.3 -3.93,15.53 -13.24,27.74 -50.31,30.63 -67.56,10.09 -7.75,-9.22 -11.2,-17.34 -11.2,-30.49zm93.02 -228.61l180.06 0 29.56 0c5.87,0.8 5.9,3.56 5.88,11.81l0 142.45c0,5.14 -1.3,19.61 0.85,22.78 5.02,7.41 26.7,21.31 32.61,38.96 1.02,3.04 1.63,6.67 1.98,10.64l0 34.63 0 1.48 0 1.48 0 1.48 0 1.48 0 1.48 0 1.48 0 1.48 0 1.48 0 1.48 0 1.48 0 1.48 0 1.48 0 1.48 0 1.48 0 1.48 0 1.48 0 1.48 0 1.48 0 1.48 0 1.48 0 1.48 0 1.48 0 1.48 0 1.48 0 1.48 0 1.48 0 1.48 0 1.48 0 1.48 0 1.48 0 1.48 0 1.48 0 1.48 0 1.48 0 1.48 0 1.48 0 1.48 0 1.48 0 1.48 0 1.48 0 1.48 0 1.48 0 1.48 0 1.48 0 1.48 0 1.48 0 1.48 0 1.48 0 1.48 0 1.48 0 1.48 0 1.48 0 1.48 0 1.48 0 1.48 0 1.48 0 1.48 0 1.48 0 1.48 0 1.48 0 1.48 0 1.48 0 1.48 0 1.48 -11.81 0c0,-31.04 0,-62.07 0,-93.11 0,-13.98 1.89,-33.73 -2.37,-44.19 -2.83,-6.98 -15.26,-20.58 -21.26,-24.6l0.17 35.97c0.92,3.32 9.35,8.53 11.13,12.54 2.44,5.52 -3.67,13.13 -10.45,6.24l-29.51 -29.56c-3.02,-3.02 -8.43,-10.74 -13.93,-7.38 -7.29,4.45 2.3,12.43 4.2,14.33 33.84,33.83 28.94,25.65 20.62,38.34 -7.16,10.92 -6.72,25.31 1.18,35.75 1.57,2.07 4.27,4.61 4.67,7.22 0.54,3.56 -2.02,6.31 -4.85,6.76 -9.24,1.48 -17.96,-21.26 -17.96,-29.19l-31.27 0c0,4.1 -0.81,5.78 -0.73,10.44 0.15,8.32 2.94,17.7 6.76,24.53 5.24,9.38 6.59,7.17 6.5,15.04 -0.07,6.94 -0.02,13.92 -0.02,20.87l-11.81 0c0,-26.16 2.04,-16.65 -4.4,-28.26 -9.76,-17.61 -8.8,-24.52 -8.8,-42.62l-179.97 0c-18.03,0 -32.21,-1.87 -44.99,-14.76 -13.47,-13.59 -16.85,-23.48 -16.85,-43.6l0 -0.93 0 -0.94 0 -0.93 0 -0.93 0 -0.93 0 -0.93 0 -0.93 0 -0.94 0 -0.93 0 -0.93 0 -0.93 0 -0.93 0 -0.93 0 -0.94 0 -0.93 0 -0.93 0 -0.93 0 -0.93 0 -0.93 0 -0.94 0 -0.93 0 -0.93 0 -0.93 0 -0.93 0 -0.93 0 -0.94 0 -0.93 0 -0.93 0 -0.93 0 -0.93 0 -0.93 0 -0.94 0 -0.93 0 -0.93 0 -0.93 0 -0.93 0 -0.93 0 -0.94 0 -0.93 0 -0.93 0 -0.93 0 -0.93 0 -0.93 0 -0.94 0 -0.93 0 -0.93 0 -0.93 0 -0.93 0 -0.93 0 -0.94 0 -0.93 0 -0.93 0 -0.93 0 -0.93 0 -0.93 0 -0.94 0 -0.93 0 -0.93 0 -0.93 0 -0.93 0 -0.93 0 -0.94 0 -0.93 0 -0.93 0 -18.75c0.56,-3.13 2,-4.96 5.35,-5.77 4.89,-1.18 80.34,-0.49 89.15,-0.49l0 -118.82c0,-21.75 -1.47,-22.89 10.33,-22.93zm189.1 255.02c-3.11,5.87 -5.89,9.87 -7.65,17.37l-198.04 0c5.24,-7.81 18.76,-15.76 18.76,-41.69l0 -218.88 200.81 0 0 205.68c-7.41,-4.96 -14.58,-18.76 -26.41,-18.76 -15.93,0 -23.49,17.52 -14.32,29.61 2.41,3.18 24.11,24.85 26.83,26.68z"/>
   <path class="fil3" d="M548.86 539.5c0,1.6 0.48,2.08 2.09,2.08l109.09 0c3.26,0 2.08,-4.27 2.08,-12.51l-113.26 0 0 10.43z"/>
   <polygon class="fil3" points="548.86,446.38 632.24,446.38 632.24,433.87 548.86,433.87 "/>
   <path class="fil3" d="M548.86 459.59l0 10.42 83.39 0c0,-8.24 1.18,-12.51 -2.09,-12.51l-79.21 0c-1.6,0 -2.09,0.48 -2.09,2.09z"/>
   <polygon class="fil3" points="548.86,517.26 632.24,517.26 632.24,505.45 548.86,505.45 "/>
   <polygon class="fil3" points="548.86,493.63 620.43,493.63 620.43,481.82 548.86,481.82 "/>
   <path class="fil3" d="M673.24 459.59l0 10.42 24.32 0c0,-16.1 4.48,-12.51 -22.23,-12.51 -1.6,0 -2.09,0.48 -2.09,2.09z"/>
   <path class="fil3" d="M673.24 435.96l0 10.42 24.32 0 0 -12.51 -22.23 0c-1.6,0 -2.09,0.48 -2.09,2.09z"/>
   <polygon class="fil3" points="673.24,493.63 697.56,493.63 697.56,481.82 673.24,481.82 "/>
  </g>
 </g>
</svg>
