<?xml version="1.0" encoding="UTF-8"?>
<!DOCTYPE svg PUBLIC "-//W3C//DTD SVG 1.1//EN" "http://www.w3.org/Graphics/SVG/1.1/DTD/svg11.dtd">
<!-- Creator: CorelDRAW 2018 (64-Bit Evaluation Version) -->
<svg xmlns="http://www.w3.org/2000/svg" xml:space="preserve" width="1.1811in" height="1.1811in" version="1.1" style="shape-rendering:geometricPrecision; text-rendering:geometricPrecision; image-rendering:optimizeQuality; fill-rule:evenodd; clip-rule:evenodd"
viewBox="0 0 1181.1 1181.1"
 xmlns:xlink="http://www.w3.org/1999/xlink">
 <defs>
  <style type="text/css">
   <![CDATA[
    .fil3 {fill:#FEFEFE}
    .fil2 {fill:#96989A}
    .fil1 {fill:#ED3237}
    .fil0 {fill:#96989A;fill-rule:nonzero}
   ]]>
  </style>
 </defs>
 <g id="Layer_x0020_1">
  <metadata id="CorelCorpID_0Corel-Layer"/>
  <g id="_2540551577872">
   <path class="fil0" d="M867.01 123.91c-3.83,-2.95 -7.69,-5.84 -11.61,-8.68l-8.12 11.27c3.8,2.77 7.55,5.56 11.27,8.43l8.46 -11.02z"/>
   <path class="fil0" d="M889.41 142.38c-3.63,-3.19 -7.33,-6.38 -11.07,-9.43l-8.77 10.76c3.46,3.07 7.17,6.02 10.68,9.11l9.17 -10.44z"/>
   <path class="fil0" d="M965.89 229.3c-13.31,-19.96 -28.86,-39.12 -45.23,-56.65l-10.11 9.53c15.85,16.91 30.97,35.61 43.83,54.89l11.51 -7.77z"/>
   <path class="fil0" d="M995.2 279.34c-2.16,-4.34 -4.58,-8.58 -6.73,-12.89l-12.17 6.71c2.22,4.11 4.42,8.25 6.5,12.44l12.4 -6.26z"/>
   <path class="fil0" d="M1007.38 305.66c-1.89,-4.45 -3.84,-8.87 -5.88,-13.25l-12.59 5.87c1.97,4.26 3.86,8.54 5.7,12.87l12.76 -5.48z"/>
   <path class="fil0" d="M1038.49 417.2c-3.43,-23.91 -8.83,-47.65 -16.07,-70.69l-13.24 4.2c7.02,22.26 12.26,45.39 15.57,68.49l13.74 -2.01z"/>
   <path class="fil0" d="M1043.08 475c-0.08,-4.83 -0.23,-9.67 -0.46,-14.5l-13.87 0.7c0.24,4.68 0.37,9.38 0.44,14.06l13.89 -0.27z"/>
   <path class="fil0" d="M1042.63 504.01c0.21,-4.83 0.37,-9.66 0.46,-14.5l-13.89 -0.18c-0.09,4.7 -0.23,9.37 -0.44,14.07l13.87 0.61z"/>
   <path class="fil0" d="M1022.44 618.02c7.26,-23.31 12.53,-46.54 16.07,-70.7l-13.76 -1.92c-3.34,23.27 -8.58,46.06 -15.57,68.49l13.26 4.13z"/>
   <path class="fil0" d="M1001.52 672.13c2.03,-4.39 3.98,-8.81 5.88,-13.26l-12.8 -5.41c-1.84,4.32 -3.74,8.6 -5.7,12.87l12.62 5.8z"/>
   <path class="fil0" d="M988.49 698.07c2.34,-4.21 4.57,-8.58 6.74,-12.89l-12.44 -6.18c-2.09,4.15 -4.24,8.38 -6.5,12.43l12.2 6.64z"/>
   <path class="fil0" d="M698.38 921.96c4.7,-1.15 9.37,-2.37 14.03,-3.67l-3.79 -13.36c-4.53,1.26 -9.06,2.44 -13.62,3.56l3.38 13.47z"/>
   <path class="fil0" d="M669.96 927.94c4.76,-0.81 9.51,-1.78 14.24,-2.76l-2.87 -13.59c-4.59,0.95 -9.2,1.88 -13.81,2.67l2.44 13.68z"/>
   <path class="fil0" d="M554.34 933.47c24.11,1.85 48.36,1.95 72.46,-0.01l-1.14 -13.84c-23.38,1.9 -46.89,1.8 -70.28,0l-1.05 13.85z"/>
   <path class="fil0" d="M496.94 925.2c4.74,0.98 9.48,1.91 14.24,2.76l2.35 -13.69c-4.62,-0.81 -9.21,-1.72 -13.81,-2.67l-2.79 13.61z"/>
   <path class="fil0" d="M468.72 918.31c4.67,1.29 9.33,2.5 14.03,3.67l3.28 -13.5c-4.56,-1.13 -9.08,-2.31 -13.61,-3.56l-3.71 13.39z"/>
   <path class="fil0" d="M362.13 873.12c21.01,12.34 42.64,22.61 65.31,31.5l4.94 -12.98c-21.87,-8.51 -43,-18.63 -63.25,-30.52l-7 12z"/>
   <path class="fil0" d="M185.87 685.24c2.17,4.34 4.58,8.58 6.74,12.89l12.17 -6.71c-2.23,-4.11 -4.41,-8.26 -6.5,-12.44l-12.4 6.26z"/>
   <path class="fil0" d="M173.7 658.93c1.89,4.45 3.84,8.87 5.88,13.25l12.59 -5.87c-1.97,-4.26 -3.87,-8.54 -5.7,-12.87l-12.76 5.48z"/>
   <path class="fil0" d="M142.58 547.39c3.34,23.74 8.85,47.83 16.07,70.69l13.24 -4.2c-7,-22.08 -12.35,-45.56 -15.57,-68.49l-13.74 2.01z"/>
   <path class="fil0" d="M137.99 489.58c0.08,4.83 0.23,9.67 0.46,14.5l13.87 -0.7c-0.24,-4.68 -0.37,-9.38 -0.44,-14.06l-13.89 0.27z"/>
   <path class="fil0" d="M138.44 460.57c-0.22,4.83 -0.37,9.66 -0.46,14.5l13.89 0.18c0.09,-4.7 0.23,-9.37 0.44,-14.06l-13.87 -0.61z"/>
   <path class="fil0" d="M158.63 346.57c-7.27,23.17 -12.57,46.67 -16.07,70.7l13.76 1.92c3.29,-23.14 8.58,-46.2 15.57,-68.49l-13.26 -4.13z"/>
   <path class="fil0" d="M179.54 292.46c-2.02,4.39 -3.98,8.8 -5.87,13.26l12.8 5.41c1.84,-4.32 3.74,-8.6 5.7,-12.86l-12.62 -5.8z"/>
   <path class="fil0" d="M192.58 266.51c-2.3,4.27 -4.57,8.56 -6.74,12.89l12.44 6.18c2.09,-4.17 4.26,-8.3 6.48,-12.4l-12.18 -6.67z"/>
   <path class="fil0" d="M589.39 29.68c95.21,0 183.56,29.41 256.45,79.62l-17.92 4.73c-68.67,-44.57 -150.57,-70.46 -238.54,-70.46 -121.15,0 -230.83,49.11 -310.22,128.5 -30.26,30.26 -56.11,64.93 -76.53,102.94l-15.96 0.49c21.61,-42 49.59,-80.17 82.67,-113.25 81.9,-81.9 195.06,-132.57 320.04,-132.57zm408.44 647.84c-22.3,46.56 -52.31,88.72 -88.4,124.8 -51.64,51.64 -115.71,90.86 -187.33,112.79l0.85 -14.82c67.44,-21.53 127.8,-58.91 176.67,-107.79 32.2,-32.2 59.41,-69.37 80.39,-110.28l17.83 -4.7zm-602.53 213.75c-47.02,-22.35 -89.57,-52.57 -125.95,-88.95 -34.87,-34.87 -64.06,-75.4 -86.11,-120.09l15.3 -0.47c21.01,41.09 48.31,78.43 80.63,110.74 33.95,33.95 73.44,62.35 117,83.76l-0.86 15.01z"/>
  </g>
  <g id="_2540555233072">
   <path class="fil0" d="M298.54 234.85c-2.64,3.13 -5.23,6.27 -7.78,9.47l9.2 7.3c2.48,-3.1 4.99,-6.16 7.56,-9.19l-8.98 -7.57z"/>
   <path class="fil0" d="M315.02 216.65c-2.83,2.94 -5.67,5.94 -8.4,8.98l8.76 7.83c2.72,-2.8 5.37,-5.82 8.11,-8.67l-8.46 -8.15z"/>
   <path class="fil0" d="M391.4 155.41c-17.38,10.47 -34.17,22.86 -49.61,36.02l7.65 8.91c14.9,-12.73 31.28,-24.78 48.07,-34.9l-6.12 -10.03z"/>
   <path class="fil0" d="M434.81 132.59c-3.75,1.65 -7.43,3.54 -11.15,5.19l5.19 10.54c3.56,-1.72 7.14,-3.41 10.76,-5l-4.81 -10.72z"/>
   <path class="fil0" d="M457.51 123.32c-3.83,1.43 -7.64,2.9 -11.42,4.45l4.46 10.87c3.68,-1.5 7.37,-2.93 11.09,-4.32l-4.13 -10.99z"/>
   <path class="fil0" d="M552.94 101.36c-20.33,1.97 -40.59,5.61 -60.33,10.84l3.04 11.35c19.07,-5.07 38.81,-8.59 58.46,-10.5l-1.17 -11.69z"/>
   <path class="fil0" d="M601.95 99.73c-4.09,-0.12 -8.18,-0.18 -12.26,-0.17l0.05 11.74c3.96,-0.02 7.94,0.05 11.9,0.17l0.31 -11.74z"/>
   <path class="fil0" d="M626.43 101.24c-4.07,-0.37 -8.14,-0.69 -12.23,-0.95l-0.69 11.72c3.96,0.26 7.91,0.56 11.87,0.92l1.06 -11.69z"/>
   <path class="fil0" d="M721.95 122.71c-19.41,-7.04 -38.83,-12.39 -59.1,-16.31l-2.15 11.55c19.52,3.72 38.57,9.04 57.25,15.81l4 -11.04z"/>
   <path class="fil0" d="M766.85 142.48c-3.63,-1.88 -7.29,-3.7 -10.97,-5.48l-5.07 10.6c3.58,1.72 7.12,3.49 10.65,5.32l5.39 -10.44z"/>
   <path class="fil0" d="M966.14 408.24c-0.79,-4.02 -1.63,-8.01 -2.56,-11.99l-11.43 2.68c0.88,3.87 1.7,7.74 2.48,11.64l11.51 -2.33z"/>
   <path class="fil0" d="M970.09 432.48c-0.5,-4.05 -1.13,-8.1 -1.78,-12.13l-11.59 1.89c0.63,3.91 1.23,7.84 1.72,11.77l11.65 -1.53z"/>
   <path class="fil0" d="M970.28 530.36c2.5,-20.29 3.52,-40.78 2.8,-61.21l-11.74 0.43c0.7,19.82 -0.3,39.69 -2.72,59.37l11.66 1.42z"/>
   <path class="fil0" d="M961.07 578.53c1.01,-3.97 1.98,-7.93 2.88,-11.93l-11.48 -2.52c-0.87,3.87 -1.81,7.71 -2.79,11.56l11.39 2.88z"/>
   <path class="fil0" d="M954.15 602.09c1.27,-3.89 2.48,-7.78 3.65,-11.71l-11.27 -3.3c-1.13,3.8 -2.3,7.58 -3.54,11.35l11.16 3.65z"/>
   <path class="fil0" d="M723.6 841.25c3.83,-1.43 7.64,-2.9 11.42,-4.45l-4.47 -10.86c-3.68,1.5 -7.37,2.93 -11.09,4.32l4.13 11z"/>
   <path class="fil0" d="M628.17 863.21c20.19,-1.9 40.74,-5.63 60.34,-10.84l-3.04 -11.34c-18.93,5.05 -38.96,8.66 -58.46,10.5l1.16 11.69z"/>
   <path class="fil0" d="M579.17 864.85c4.09,0.12 8.17,0.18 12.26,0.17l-0.06 -11.74c-3.96,0.02 -7.94,-0.05 -11.9,-0.17l-0.31 11.74z"/>
   <path class="fil0" d="M554.68 863.34c4.07,0.37 8.14,0.69 12.22,0.94l0.69 -11.72c-3.96,-0.26 -7.91,-0.56 -11.86,-0.92l-1.06 11.7z"/>
   <path class="fil0" d="M459.16 841.86c19.29,7.04 38.93,12.43 59.09,16.31l2.16 -11.55c-19.42,-3.68 -38.69,-9.04 -57.25,-15.81l-4 11.04z"/>
   <path class="fil0" d="M414.26 822.1c3.63,1.88 7.28,3.7 10.97,5.48l5.07 -10.6c-3.58,-1.72 -7.12,-3.49 -10.65,-5.31l-5.39 10.44z"/>
   <path class="fil0" d="M208.18 465.71c3.69,-80.43 31.96,-153.92 77.2,-213.55l3.3 15.32c-40.31,56.28 -65.36,124.46 -68.77,198.76 -4.7,102.34 32.53,196.89 96.52,267.04 24.39,26.73 52.67,49.91 83.99,68.64l-0.2 13.5c-34.64,-19.88 -65.8,-45 -92.46,-74.22 -66.01,-72.36 -104.42,-169.91 -99.57,-275.48zm563.09 -319.91c38.46,20.64 72.91,47.63 102,79.52 41.62,45.63 72.26,101.27 88.01,162.62l-12.49 -1.29c-15.57,-57.8 -44.81,-110.24 -84.2,-153.41 -25.95,-28.44 -56.3,-52.87 -90.04,-72.18l-3.28 -15.25zm157.2 517.26c-20.7,38.85 -47.88,73.63 -80.02,102.94 -30.8,28.1 -66.17,51.19 -104.78,68.09l0.2 -12.94c35.52,-16.16 68.12,-37.77 96.67,-63.81 29.99,-27.36 55.52,-59.62 75.29,-95.58l12.65 1.31z"/>
  </g>
  <circle class="fil1" cx="590.54" cy="482.29" r="319.29"/>
  <path class="fil2" d="M514.1 1072.07l0 38.02 75.34 46.35 75.34 -46.35 0 -38.02 -75.34 46.35 -75.34 -46.35zm0 -61.46l0 38.02 75.34 46.35 75.34 -46.35 0 -38.02 -75.34 46.35 -75.34 -46.35z"/>
  <g id="_2540555228880">
   <g>
    <path class="fil3" d="M586.65 651.52l0 4.81 214.98 0c0,-12.72 -2.62,-24.51 -8.2,-35.66 -0.7,-1.4 -1,-1.6 -1.78,-3.03 -3.42,-6.26 -7.7,-11.77 -12.35,-17.06 -2.67,-3.04 -3.34,-2.96 -5.34,-4.82 -14.14,-13.15 -34.39,-20.19 -54.69,-20.19l-51.33 0c-13.47,0 -29.26,4.01 -39.02,9.65 -5.99,3.46 -12.35,7.72 -17.27,12.68 -7.5,7.55 -11.69,12.52 -16.62,22.42 -3.9,7.83 -8.38,19.84 -8.38,31.2z"/>
    <path class="fil3" d="M637.99 503.38c0,12.63 3.5,22.87 8.65,30.92 3.36,5.24 6.57,9.11 11.21,12.86 2.43,1.97 5.86,5.22 9.02,5.96 2.41,-5.03 1.39,-5.19 6.01,-9.5 2.45,-2.3 6.52,-4.4 11.11,-4.4 7.19,0 21.13,-0.88 26.54,1.27 2.24,0.89 3.26,2.47 5.55,2.47l17.65 0c3.91,0 16.04,-20.23 16.04,-34.22 0,-15.19 -1.41,-25.13 -10.93,-37.74 -8.24,-10.93 -20.08,-18.67 -33.69,-21.39 -11.84,-2.37 -24.94,-0.72 -34.54,4.04 -9.43,4.68 -16.15,10 -22.22,18.41 -2.04,2.82 -3.63,5.61 -5.11,8.8 -2.63,5.68 -5.28,14.15 -5.28,22.53z"/>
    <path class="fil3" d="M609.65 483.06l0 22.46 2.73 8.5c1.7,5.39 5.44,10.33 10.02,13.51 1.83,1.27 5.47,3.44 8.1,3.66l0 -50.81c-2.54,0.21 -5.09,1.6 -6.86,2.77 -2.02,1.33 -3.65,2.98 -5.44,4.19 0,-12.79 2.28,-21.63 6.11,-30.8 2.66,-6.38 6.4,-11.93 10.45,-17.35 2.65,-3.54 2.95,-1.29 6.23,-3.39 3.96,-2.55 7.11,-8.34 21.95,-15.49 24.01,-11.56 52,-7.67 73.13,6.92l10.15 8.57c4.43,2.85 2.5,-2.4 9.95,8.76 8.09,12.1 12.83,27.04 12.83,43.31 -6.94,-4.65 0.92,-1.15 -12.3,-7.49l0 50.81 3.19 -0.62c0.11,24.63 1.89,22.54 -13.89,22.54 -12.12,0 -24.24,0 -36.36,0 -0.68,-2.55 -3.79,-3.74 -6.42,-3.74l-18.72 0c-11.09,0 -10.16,15.51 0.54,15.51l17.65 0c3.39,0 6.76,-1.54 7.48,-4.28 10.16,0 20.32,0 30.48,0 11.3,0 21.04,1.87 25.46,-5.56 4.54,-7.61 2.24,-17.32 2.84,-28.17 0.27,-4.85 4.23,-2.96 7.63,-15.36 0.5,-1.82 2.03,-4.38 2.03,-5.99 0,-23.09 1.26,-32.26 -7.71,-53.79 -1.07,-2.57 -2.24,-4.59 -3.49,-6.67 -3.51,-5.81 -4.09,-6.99 -8.53,-12.32 -1.78,-2.13 -1.23,-0.56 -1.7,-3.65 -0.3,-1.98 -0.35,-2.44 -1.46,-3.89 -3.78,-4.93 -18.46,-14.64 -24.34,-17.37 -10.6,-4.91 -21.62,-7.61 -32.63,-8.2l-9.19 0c-15.7,0.84 -31.12,5.98 -44.96,15.19l-8.63 6.88c-1.57,1.59 -3.91,2.82 -4.95,5.21 -1.28,2.93 0.84,2.67 -3.09,7.07 -9.98,11.2 -18.3,32.79 -18.3,49.08z"/>
   </g>
   <path class="fil3" d="M379.47 393.7l0 8.28c0.74,13.92 5.26,27.9 13.87,40.78 14.8,22.15 36.38,35.8 61.91,44.39 12.26,4.12 30,7.22 45.93,7.22 16.96,0 16.32,-3.84 21.03,0.53 1.75,1.62 2.45,1.96 4.19,3.52 10.58,9.51 29.04,17.07 43.66,20.28 6.8,1.49 20.89,4.17 27.41,4.17 -0.76,-2.85 -2.13,-3.1 -4.04,-5.2 -9.68,-10.7 -17.38,-28.68 -20.61,-42.56 3.33,-2.23 6.42,-3.85 9.8,-6.37 21.65,-16.11 39.5,-40.75 39.5,-70.66 0,-36.56 -25.64,-65.59 -56.24,-80.89 -45.02,-22.5 -106.51,-20.54 -147.13,10.02l-14.44 12.52c-15.22,15.17 -23.79,34.27 -24.84,53.97z"/>
  </g>
 </g>
</svg>
