<?xml version="1.0" encoding="UTF-8"?>
<!DOCTYPE svg PUBLIC "-//W3C//DTD SVG 1.1//EN" "http://www.w3.org/Graphics/SVG/1.1/DTD/svg11.dtd">
<!-- Creator: CorelDRAW 2018 (64-Bit Evaluation Version) -->
<svg xmlns="http://www.w3.org/2000/svg" xml:space="preserve" width="1.1811in" height="1.1811in" version="1.1" style="shape-rendering:geometricPrecision; text-rendering:geometricPrecision; image-rendering:optimizeQuality; fill-rule:evenodd; clip-rule:evenodd"
viewBox="0 0 1181.1 1181.1"
 xmlns:xlink="http://www.w3.org/1999/xlink">
 <defs>
  <style type="text/css">
   <![CDATA[
    .fil3 {fill:#FEFEFE}
    .fil2 {fill:#96989A}
    .fil1 {fill:#ED3237}
    .fil0 {fill:#96989A;fill-rule:nonzero}
   ]]>
  </style>
 </defs>
 <g id="Layer_x0020_1">
  <metadata id="CorelCorpID_0Corel-Layer"/>
  <g id="_2540551177552">
   <path class="fil0" d="M867.01 123.91c-3.83,-2.95 -7.69,-5.84 -11.61,-8.68l-8.12 11.27c3.8,2.77 7.55,5.56 11.27,8.43l8.46 -11.02z"/>
   <path class="fil0" d="M889.41 142.38c-3.63,-3.19 -7.33,-6.38 -11.07,-9.43l-8.77 10.76c3.46,3.07 7.17,6.02 10.68,9.11l9.17 -10.44z"/>
   <path class="fil0" d="M965.89 229.3c-13.31,-19.96 -28.86,-39.12 -45.23,-56.65l-10.11 9.53c15.85,16.91 30.97,35.61 43.83,54.89l11.51 -7.77z"/>
   <path class="fil0" d="M995.2 279.34c-2.16,-4.34 -4.58,-8.58 -6.73,-12.89l-12.17 6.71c2.22,4.11 4.42,8.25 6.5,12.44l12.4 -6.26z"/>
   <path class="fil0" d="M1007.38 305.66c-1.89,-4.45 -3.84,-8.87 -5.88,-13.25l-12.59 5.87c1.97,4.26 3.86,8.54 5.7,12.87l12.76 -5.48z"/>
   <path class="fil0" d="M1038.49 417.2c-3.43,-23.91 -8.83,-47.65 -16.07,-70.69l-13.24 4.2c7.02,22.26 12.26,45.39 15.57,68.49l13.74 -2.01z"/>
   <path class="fil0" d="M1043.08 475c-0.08,-4.83 -0.23,-9.67 -0.46,-14.5l-13.87 0.7c0.24,4.68 0.37,9.38 0.44,14.06l13.89 -0.27z"/>
   <path class="fil0" d="M1042.63 504.01c0.21,-4.83 0.37,-9.66 0.46,-14.5l-13.89 -0.18c-0.09,4.7 -0.23,9.37 -0.44,14.07l13.87 0.61z"/>
   <path class="fil0" d="M1022.44 618.02c7.26,-23.31 12.53,-46.54 16.07,-70.7l-13.76 -1.92c-3.34,23.27 -8.58,46.06 -15.57,68.49l13.26 4.13z"/>
   <path class="fil0" d="M1001.52 672.13c2.03,-4.39 3.98,-8.81 5.88,-13.26l-12.8 -5.41c-1.84,4.32 -3.74,8.6 -5.7,12.87l12.62 5.8z"/>
   <path class="fil0" d="M988.49 698.07c2.34,-4.21 4.57,-8.58 6.74,-12.89l-12.44 -6.18c-2.09,4.15 -4.24,8.38 -6.5,12.43l12.2 6.64z"/>
   <path class="fil0" d="M698.38 921.96c4.7,-1.15 9.37,-2.37 14.03,-3.67l-3.79 -13.36c-4.53,1.26 -9.06,2.44 -13.62,3.56l3.38 13.47z"/>
   <path class="fil0" d="M669.96 927.94c4.76,-0.81 9.51,-1.78 14.24,-2.76l-2.87 -13.59c-4.59,0.95 -9.2,1.88 -13.81,2.67l2.44 13.68z"/>
   <path class="fil0" d="M554.34 933.47c24.11,1.85 48.36,1.95 72.46,-0.01l-1.14 -13.84c-23.38,1.9 -46.89,1.8 -70.28,0l-1.05 13.85z"/>
   <path class="fil0" d="M496.94 925.2c4.74,0.98 9.48,1.91 14.24,2.76l2.35 -13.69c-4.62,-0.81 -9.21,-1.72 -13.81,-2.67l-2.79 13.61z"/>
   <path class="fil0" d="M468.72 918.31c4.67,1.29 9.33,2.5 14.03,3.67l3.28 -13.5c-4.56,-1.13 -9.08,-2.31 -13.61,-3.56l-3.71 13.39z"/>
   <path class="fil0" d="M362.13 873.12c21.01,12.34 42.64,22.61 65.31,31.5l4.94 -12.98c-21.87,-8.51 -43,-18.63 -63.25,-30.52l-7 12z"/>
   <path class="fil0" d="M185.87 685.24c2.17,4.34 4.58,8.58 6.74,12.89l12.17 -6.71c-2.23,-4.11 -4.41,-8.26 -6.5,-12.44l-12.4 6.26z"/>
   <path class="fil0" d="M173.7 658.93c1.89,4.45 3.84,8.87 5.88,13.25l12.59 -5.87c-1.97,-4.26 -3.87,-8.54 -5.7,-12.87l-12.76 5.48z"/>
   <path class="fil0" d="M142.58 547.39c3.34,23.74 8.85,47.83 16.07,70.69l13.24 -4.2c-7,-22.08 -12.35,-45.56 -15.57,-68.49l-13.74 2.01z"/>
   <path class="fil0" d="M137.99 489.58c0.08,4.83 0.23,9.67 0.46,14.5l13.87 -0.7c-0.24,-4.68 -0.37,-9.38 -0.44,-14.06l-13.89 0.27z"/>
   <path class="fil0" d="M138.44 460.57c-0.22,4.83 -0.37,9.66 -0.46,14.5l13.89 0.18c0.09,-4.7 0.23,-9.37 0.44,-14.06l-13.87 -0.61z"/>
   <path class="fil0" d="M158.63 346.57c-7.27,23.17 -12.57,46.67 -16.07,70.7l13.76 1.92c3.29,-23.14 8.58,-46.2 15.57,-68.49l-13.26 -4.13z"/>
   <path class="fil0" d="M179.54 292.46c-2.02,4.39 -3.98,8.8 -5.87,13.26l12.8 5.41c1.84,-4.32 3.74,-8.6 5.7,-12.86l-12.62 -5.8z"/>
   <path class="fil0" d="M192.58 266.51c-2.3,4.27 -4.57,8.56 -6.74,12.89l12.44 6.18c2.09,-4.17 4.26,-8.3 6.48,-12.4l-12.18 -6.67z"/>
   <path class="fil0" d="M589.39 29.68c95.21,0 183.56,29.41 256.45,79.62l-17.92 4.73c-68.67,-44.57 -150.57,-70.46 -238.54,-70.46 -121.15,0 -230.83,49.11 -310.22,128.5 -30.26,30.26 -56.11,64.93 -76.53,102.94l-15.96 0.49c21.61,-42 49.59,-80.17 82.67,-113.25 81.9,-81.9 195.06,-132.57 320.04,-132.57zm408.44 647.84c-22.3,46.56 -52.31,88.72 -88.4,124.8 -51.64,51.64 -115.71,90.86 -187.33,112.79l0.85 -14.82c67.44,-21.53 127.8,-58.91 176.67,-107.79 32.2,-32.2 59.41,-69.37 80.39,-110.28l17.83 -4.7zm-602.53 213.75c-47.02,-22.35 -89.57,-52.57 -125.95,-88.95 -34.87,-34.87 -64.06,-75.4 -86.11,-120.09l15.3 -0.47c21.01,41.09 48.31,78.43 80.63,110.74 33.95,33.95 73.44,62.35 117,83.76l-0.86 15.01z"/>
  </g>
  <g id="_2540551170384">
   <path class="fil0" d="M298.54 234.85c-2.64,3.13 -5.23,6.27 -7.78,9.47l9.2 7.3c2.48,-3.1 4.99,-6.16 7.56,-9.19l-8.98 -7.57z"/>
   <path class="fil0" d="M315.02 216.65c-2.83,2.94 -5.67,5.94 -8.4,8.98l8.76 7.83c2.72,-2.8 5.37,-5.82 8.11,-8.67l-8.46 -8.15z"/>
   <path class="fil0" d="M391.4 155.41c-17.38,10.47 -34.17,22.86 -49.61,36.02l7.65 8.91c14.9,-12.73 31.28,-24.78 48.07,-34.9l-6.12 -10.03z"/>
   <path class="fil0" d="M434.81 132.59c-3.75,1.65 -7.43,3.54 -11.15,5.19l5.19 10.54c3.56,-1.72 7.14,-3.41 10.76,-5l-4.81 -10.72z"/>
   <path class="fil0" d="M457.51 123.32c-3.83,1.43 -7.64,2.9 -11.42,4.45l4.46 10.87c3.68,-1.5 7.37,-2.93 11.09,-4.32l-4.13 -10.99z"/>
   <path class="fil0" d="M552.94 101.36c-20.33,1.97 -40.59,5.61 -60.33,10.84l3.04 11.35c19.07,-5.07 38.81,-8.59 58.46,-10.5l-1.17 -11.69z"/>
   <path class="fil0" d="M601.95 99.73c-4.09,-0.12 -8.18,-0.18 -12.26,-0.17l0.05 11.74c3.96,-0.02 7.94,0.05 11.9,0.17l0.31 -11.74z"/>
   <path class="fil0" d="M626.43 101.24c-4.07,-0.37 -8.14,-0.69 -12.23,-0.95l-0.69 11.72c3.96,0.26 7.91,0.56 11.87,0.92l1.06 -11.69z"/>
   <path class="fil0" d="M721.95 122.71c-19.41,-7.04 -38.83,-12.39 -59.1,-16.31l-2.15 11.55c19.52,3.72 38.57,9.04 57.25,15.81l4 -11.04z"/>
   <path class="fil0" d="M766.85 142.48c-3.63,-1.88 -7.29,-3.7 -10.97,-5.48l-5.07 10.6c3.58,1.72 7.12,3.49 10.65,5.32l5.39 -10.44z"/>
   <path class="fil0" d="M966.14 408.24c-0.79,-4.02 -1.63,-8.01 -2.56,-11.99l-11.43 2.68c0.88,3.87 1.7,7.74 2.48,11.64l11.51 -2.33z"/>
   <path class="fil0" d="M970.09 432.48c-0.5,-4.05 -1.13,-8.1 -1.78,-12.13l-11.59 1.89c0.63,3.91 1.23,7.84 1.72,11.77l11.65 -1.53z"/>
   <path class="fil0" d="M970.28 530.36c2.5,-20.29 3.52,-40.78 2.8,-61.21l-11.74 0.43c0.7,19.82 -0.3,39.69 -2.72,59.37l11.66 1.42z"/>
   <path class="fil0" d="M961.07 578.53c1.01,-3.97 1.98,-7.93 2.88,-11.93l-11.48 -2.52c-0.87,3.87 -1.81,7.71 -2.79,11.56l11.39 2.88z"/>
   <path class="fil0" d="M954.15 602.09c1.27,-3.89 2.48,-7.78 3.65,-11.71l-11.27 -3.3c-1.13,3.8 -2.3,7.58 -3.54,11.35l11.16 3.65z"/>
   <path class="fil0" d="M723.6 841.25c3.83,-1.43 7.64,-2.9 11.42,-4.45l-4.47 -10.86c-3.68,1.5 -7.37,2.93 -11.09,4.32l4.13 11z"/>
   <path class="fil0" d="M628.17 863.21c20.19,-1.9 40.74,-5.63 60.34,-10.84l-3.04 -11.34c-18.93,5.05 -38.96,8.66 -58.46,10.5l1.16 11.69z"/>
   <path class="fil0" d="M579.17 864.85c4.09,0.12 8.17,0.18 12.26,0.17l-0.06 -11.74c-3.96,0.02 -7.94,-0.05 -11.9,-0.17l-0.31 11.74z"/>
   <path class="fil0" d="M554.68 863.34c4.07,0.37 8.14,0.69 12.22,0.94l0.69 -11.72c-3.96,-0.26 -7.91,-0.56 -11.86,-0.92l-1.06 11.7z"/>
   <path class="fil0" d="M459.16 841.86c19.29,7.04 38.93,12.43 59.09,16.31l2.16 -11.55c-19.42,-3.68 -38.69,-9.04 -57.25,-15.81l-4 11.04z"/>
   <path class="fil0" d="M414.26 822.1c3.63,1.88 7.28,3.7 10.97,5.48l5.07 -10.6c-3.58,-1.72 -7.12,-3.49 -10.65,-5.31l-5.39 10.44z"/>
   <path class="fil0" d="M208.18 465.71c3.69,-80.43 31.96,-153.92 77.2,-213.55l3.3 15.32c-40.31,56.28 -65.36,124.46 -68.77,198.76 -4.7,102.34 32.53,196.89 96.52,267.04 24.39,26.73 52.67,49.91 83.99,68.64l-0.2 13.5c-34.64,-19.88 -65.8,-45 -92.46,-74.22 -66.01,-72.36 -104.42,-169.91 -99.57,-275.48zm563.09 -319.91c38.46,20.64 72.91,47.63 102,79.52 41.62,45.63 72.26,101.27 88.01,162.62l-12.49 -1.29c-15.57,-57.8 -44.81,-110.24 -84.2,-153.41 -25.95,-28.44 -56.3,-52.87 -90.04,-72.18l-3.28 -15.25zm157.2 517.26c-20.7,38.85 -47.88,73.63 -80.02,102.94 -30.8,28.1 -66.17,51.19 -104.78,68.09l0.2 -12.94c35.52,-16.16 68.12,-37.77 96.67,-63.81 29.99,-27.36 55.52,-59.62 75.29,-95.58l12.65 1.31z"/>
  </g>
  <circle class="fil1" cx="590.54" cy="482.29" r="319.29"/>
  <path class="fil2" d="M514.1 1072.07l0 38.02 75.34 46.35 75.34 -46.35 0 -38.02 -75.34 46.35 -75.34 -46.35zm0 -61.46l0 38.02 75.34 46.35 75.34 -46.35 0 -38.02 -75.34 46.35 -75.34 -46.35z"/>
  <g id="_2540552017744">
   <path class="fil3" d="M575.07 561.4l29.63 0 0 14.82 -29.63 0 0 -14.82zm30.56 30.56l-27.65 0c-18.29,-0.72 -18.65,-5.41 -18.65,-30.56l-106.48 0 0 12.04c0,10.57 -6.71,18.52 -13.89,18.52l-33.33 0c-7.53,0 -12.2,-4.96 -14.07,-10.93 -1.55,-4.96 -0.75,-16.55 -0.75,-23.33 -6.61,-1.54 -12.7,-7.9 -16.31,-13.32 -8.67,-13.04 -6.83,-25.55 -6.83,-42.24 0,-17.22 12.35,-29.25 14.81,-39.81 -17.72,0 -29.63,-5.82 -29.63,-25 0,-11.24 9.94,-21.42 24.98,-21.32 18.28,0.13 14.86,1.33 16.53,-6.62 1.39,-6.62 2.78,-12.38 4.1,-19.05 2.98,-14.98 4.22,-22.96 13.86,-32.44 8.15,-8.02 18.21,-11.31 34.06,-11.31l118.52 0c17.91,0 24.7,2.81 35.04,12.18 0.2,0.18 0.79,0.69 0.98,0.87 11.19,10.56 13.42,38.12 17.68,56.4 9.24,0 21.04,-1.33 27.43,2.2 14.09,7.78 17.82,25.7 5.24,37.88 -5.71,5.53 -11.64,6.22 -22.49,6.22 3.01,5.69 5.62,11.25 8.64,17.28 2.84,5.67 6.17,11.69 6.17,19.76 0,18.69 2.55,33.22 -7.77,46.86 -4.93,6.51 -9.02,8.15 -15.38,12.4 0,12.39 3.57,33.33 -14.82,33.33zm-199.08 -30.56l30.56 0 0 14.82 -30.56 0 0 -14.82zm-23.12 -44.44c0,-7.19 -1.54,-18.44 2.13,-23.56 19.41,4.72 43.79,9.55 64.51,11.24 18.05,2.65 35.03,3.07 55.56,3.07 8.29,0 20.78,0.74 28.57,-0.13 5.32,-0.6 23.57,-1.12 26.99,-2.54 11.31,-1.04 22.6,-2.74 33.52,-4.57 10.73,-1.81 22.4,-5.62 32.18,-6.87 1.37,7.71 1.75,16.13 1,24.3 -0.1,10.62 -1.22,15.64 -6.69,21.11 -5.57,5.57 -10.22,6.71 -21.11,6.67 -18.52,-0.07 -37.04,-0 -55.56,-0l-76.85 0c-9.71,0 -62.86,1.27 -69.12,-1.26 -11.69,-4.7 -15.27,-13.71 -15.12,-27.45zm12.01 -45.37l220.38 0 3.73 7.39c-5.24,2.52 -42.68,8.57 -48.26,9.2 -62.3,7.04 -117.82,4.98 -178.63,-9.19 0.82,-3.53 1.95,-3.87 2.78,-7.41zm201.54 -16.67c-2.04,1.17 -178.27,1.8 -182.3,0l-13.69 0c0.28,-3.39 1.34,-6.19 2.09,-9.95 2.55,-12.8 13.19,-65.53 15.86,-70.26 8.62,-15.24 22.35,-11.46 37.61,-11.46 13.11,0 117.05,-0.69 121.88,0.35 15.7,3.35 16.96,20.02 19.23,29.85l12.6 61.48 -13.28 0zm25.32 -23.15c15.32,0 20.37,-2.13 20.37,9.26 0,6.42 -10.82,5.56 -17.59,5.56 -0.9,-3.87 -2.66,-10.62 -2.78,-14.82zm-237.97 14.82c-5.8,0 -15.74,1.29 -15.74,-7.41 0,-9.78 11.52,-7.41 21.3,-7.41 -2.83,5.91 -0.69,14.82 -5.56,14.82z"/>
   <path class="fil3" d="M414.69 454.91c4.03,1.8 180.26,1.17 182.3,0 -3.85,-13.57 -12.48,-59.4 -16.19,-67.75 -5.09,-11.47 -15.88,-10.03 -31.64,-10.03l-84.26 0c-15.67,0 -27.82,-1.81 -33.69,8.91 -2.04,3.74 -10.7,43.42 -12.62,51.27l-3.89 17.6z"/>
   <path class="fil3" d="M383.43 516.95c3.74,1.83 32.07,6.85 38.87,6.5 5.96,-0.3 13.23,-3.28 17.2,-5.96 3.81,-2.58 9.48,-8.18 10.57,-12.87 -20.72,-1.69 -45.1,-6.52 -64.51,-11.24 -3.67,5.13 -2.13,16.37 -2.13,23.56z"/>
   <path class="fil3" d="M561.19 505.02c5.45,9.62 13.58,16.86 26.97,18.31 6.61,0.71 14.49,-0.84 20.03,-1.97 4.83,-0.99 14.24,-3.48 19.7,-3.48 0.75,-8.18 0.38,-16.59 -1,-24.3 -9.78,1.25 -21.45,5.06 -32.18,6.87 -10.92,1.84 -22.2,3.54 -33.52,4.57z"/>
   <path class="fil3" d="M700.56 533.51c1.31,2.82 -0.19,6.32 -2.88,7.52 -2.17,0.97 -6.69,-0.13 -8.65,0.22 2.39,5.15 4.49,7.78 8.24,9.4 6,2.59 12.87,1.06 17.28,-4.15 1.22,-1.44 1.71,-2.83 2.35,-4.57 2.69,-7.32 -1.22,-15.79 -8.59,-18.5 -11.46,-4.21 -15.99,4.41 -17.98,6.07 1.24,0.69 3.94,0.47 5.47,0.65 1.77,0.2 3.72,1.15 4.75,3.36zm87.45 0.01c2.65,0.42 4.98,1.31 7,2.66 2.02,1.36 3.66,3.09 4.93,5.2 1.27,2.1 2.15,4.57 2.64,7.4 0.51,2.83 0.58,5.93 0.22,9.26l10.66 2.82c0.18,0.06 0.38,0.15 0.54,0.26 0.17,0.11 0.3,0.3 0.38,0.55 0.09,0.24 0.11,0.59 0.12,1.01 0,0.42 -0.05,0.97 -0.15,1.63 -0.12,0.77 -0.25,1.37 -0.41,1.8 -0.16,0.43 -0.31,0.77 -0.48,1.02 -0.16,0.25 -0.36,0.4 -0.57,0.45 -0.24,0.05 -0.47,0.01 -0.73,-0.1l-10.61 -2.85c-0.44,1.57 -0.94,3 -1.46,4.31 -0.54,1.31 -1.07,2.46 -1.6,3.48 -0.54,0.99 -1.06,1.83 -1.58,2.52 -0.51,0.69 -0.98,1.17 -1.38,1.47 -0.41,0.28 -0.91,0.46 -1.49,0.49 -0.58,0.05 -1.37,-0.01 -2.38,-0.17 -0.73,-0.12 -1.33,-0.25 -1.8,-0.39 -0.46,-0.15 -0.86,-0.31 -1.16,-0.48 -0.28,-0.19 -0.48,-0.39 -0.56,-0.63 -0.08,-0.24 -0.09,-0.5 -0.05,-0.79 0.07,-0.44 0.41,-1.02 1.02,-1.74 0.6,-0.72 1.3,-1.69 2.08,-2.91 0.8,-1.21 1.6,-2.72 2.39,-4.55 0.79,-1.81 1.41,-4.04 1.83,-6.69 0.75,-4.71 0.38,-8.44 -1.09,-11.17 -1.46,-2.74 -3.78,-4.36 -6.96,-4.86 -1.96,-0.31 -3.66,-0.11 -5.11,0.57 -1.45,0.69 -2.78,1.7 -3.94,3.03 -1.19,1.33 -2.27,2.86 -3.24,4.64 -0.98,1.76 -1.96,3.56 -2.96,5.4 -1,1.83 -2.1,3.6 -3.3,5.35 -1.2,1.73 -2.57,3.22 -4.12,4.47 -1.56,1.25 -3.36,2.17 -5.42,2.76 -2.05,0.6 -4.46,0.67 -7.25,0.23 -2.22,-0.35 -4.24,-1.06 -6.04,-2.13 -1.8,-1.07 -3.3,-2.49 -4.5,-4.23 -1.2,-1.76 -2.07,-3.88 -2.62,-6.34 -0.55,-2.47 -0.66,-5.26 -0.38,-8.38l-9.87 -2.57c-0.2,-0.07 -0.37,-0.16 -0.55,-0.28 -0.16,-0.09 -0.3,-0.29 -0.41,-0.53 -0.08,-0.26 -0.13,-0.59 -0.12,-1 0.01,-0.41 0.08,-0.96 0.19,-1.66 0.11,-0.73 0.24,-1.32 0.39,-1.8 0.14,-0.46 0.3,-0.82 0.49,-1.04 0.19,-0.23 0.39,-0.35 0.59,-0.39 0.22,-0.04 0.46,-0.03 0.71,0.01l9.76 2.68c0.26,-0.98 0.59,-1.99 1.02,-3.04 0.41,-1.04 0.86,-2.01 1.31,-2.89 0.47,-0.9 0.94,-1.7 1.46,-2.4 0.5,-0.7 0.9,-1.18 1.22,-1.41 0.32,-0.25 0.59,-0.41 0.85,-0.49 0.25,-0.07 0.52,-0.13 0.84,-0.15 0.32,-0.02 0.67,-0.02 1.08,-0 0.4,0.01 0.84,0.06 1.35,0.15 0.63,0.1 1.17,0.2 1.64,0.33 0.45,0.13 0.8,0.25 1.05,0.39 0.26,0.15 0.42,0.31 0.53,0.5 0.11,0.17 0.15,0.39 0.11,0.63 -0.06,0.35 -0.37,0.91 -0.92,1.63 -0.55,0.73 -1.19,1.66 -1.87,2.8 -0.69,1.13 -1.38,2.44 -2.06,3.98 -0.68,1.53 -1.18,3.26 -1.49,5.23 -0.35,2.22 -0.43,4.15 -0.26,5.79 0.18,1.65 0.59,3.02 1.21,4.13 0.61,1.09 1.45,1.96 2.46,2.59 1.02,0.61 2.17,1.02 3.46,1.23 1.99,0.31 3.72,0.12 5.19,-0.57 1.47,-0.71 2.8,-1.72 3.95,-3.05 1.17,-1.33 2.23,-2.88 3.2,-4.68 0.96,-1.78 1.94,-3.61 2.97,-5.47 1.03,-1.85 2.13,-3.67 3.28,-5.42 1.17,-1.76 2.52,-3.28 4.1,-4.54 1.56,-1.27 3.36,-2.2 5.41,-2.82 2.04,-0.6 4.46,-0.69 7.25,-0.24zm32.5 66.83l0.8 -0.37c1.46,-0.8 2.52,-2.09 2.99,-4.1 0.2,-0.85 0.26,-1.69 0.4,-2.57l5.46 -31.43c0.66,-3.33 1.02,-6.5 1.62,-9.73 0.59,-3.21 1.19,-6.34 1.7,-9.7l2.53 -14.56c0.8,-5.67 -2.16,-10.07 -7.82,-11.25l-53.97 -9.93c-1.54,-0.26 -2.65,-0.52 -4.08,-0.73l-24.96 -4.56c-6.21,-1.06 -20.13,-4.34 -24.94,-3.85 -4.79,0.48 -25.76,10.53 -31.12,13.02 -6.27,2.91 -7,7.31 -7.82,12.63 -0.26,1.73 -0.67,3.29 -0.75,4.89 -3.65,-0.57 -7.26,-1.98 -10.76,-3.26 -3.67,-1.34 -6.67,-2.56 -10,-4.61 -9.49,-5.81 -17.24,-13.88 -19.88,-26.02 -0.27,-1.24 -0.52,-2.48 -0.65,-3.5 -0.2,-1.61 0.02,-1.78 -0.81,-3.56 -1.3,-2.8 -4.39,-3.93 -7.19,-2.63 -4.28,1.99 -3.57,5.54 -2.74,9.87 3.54,18.57 14.89,30.26 31.04,38.32l6.11 2.63c3.46,1.73 11.68,3.58 12.61,4.15 0.32,1.81 -0.63,3.82 -0.78,5.69 -0.52,6.5 4.35,10.83 8.39,15.1l14.36 15.71c2.49,2.65 4.84,4.15 7.86,5.26 2.09,0.77 6.89,1.55 9.33,1.96 3.2,0.55 5.97,1.09 9.16,1.7 11.99,2.32 25.41,4.41 37.17,6.84l9.43 1.7c1.66,0.32 3,0.5 4.59,0.82l23.17 4.26c5.72,0.98 14.47,3.81 19.56,1.82z"/>
  </g>
 </g>
</svg>
