<?xml version="1.0" encoding="UTF-8"?>
<!DOCTYPE svg PUBLIC "-//W3C//DTD SVG 1.1//EN" "http://www.w3.org/Graphics/SVG/1.1/DTD/svg11.dtd">
<!-- Creator: CorelDRAW 2018 (64-Bit Evaluation Version) -->
<svg xmlns="http://www.w3.org/2000/svg" xml:space="preserve" width="1.1811in" height="1.1811in" version="1.1" style="shape-rendering:geometricPrecision; text-rendering:geometricPrecision; image-rendering:optimizeQuality; fill-rule:evenodd; clip-rule:evenodd"
viewBox="0 0 1181.1 1181.1"
 xmlns:xlink="http://www.w3.org/1999/xlink">
 <defs>
  <style type="text/css">
   <![CDATA[
    .fil3 {fill:#FEFEFE}
    .fil2 {fill:#96989A}
    .fil1 {fill:#ED3237}
    .fil0 {fill:#96989A;fill-rule:nonzero}
   ]]>
  </style>
 </defs>
 <g id="Layer_x0020_1">
  <metadata id="CorelCorpID_0Corel-Layer"/>
  <g id="_2540549684112">
   <path class="fil0" d="M867.01 123.91c-3.83,-2.95 -7.69,-5.84 -11.61,-8.68l-8.12 11.27c3.8,2.77 7.55,5.56 11.27,8.43l8.46 -11.02z"/>
   <path class="fil0" d="M889.41 142.38c-3.63,-3.19 -7.33,-6.38 -11.07,-9.43l-8.77 10.76c3.46,3.07 7.17,6.02 10.68,9.11l9.17 -10.44z"/>
   <path class="fil0" d="M965.89 229.3c-13.31,-19.96 -28.86,-39.12 -45.23,-56.65l-10.11 9.53c15.85,16.91 30.97,35.61 43.83,54.89l11.51 -7.77z"/>
   <path class="fil0" d="M995.2 279.34c-2.16,-4.34 -4.58,-8.58 -6.73,-12.89l-12.17 6.71c2.22,4.11 4.42,8.25 6.5,12.44l12.4 -6.26z"/>
   <path class="fil0" d="M1007.38 305.66c-1.89,-4.45 -3.84,-8.87 -5.88,-13.25l-12.59 5.87c1.97,4.26 3.86,8.54 5.7,12.87l12.76 -5.48z"/>
   <path class="fil0" d="M1038.49 417.2c-3.43,-23.91 -8.83,-47.65 -16.07,-70.69l-13.24 4.2c7.02,22.26 12.26,45.39 15.57,68.49l13.74 -2.01z"/>
   <path class="fil0" d="M1043.08 475c-0.08,-4.83 -0.23,-9.67 -0.46,-14.5l-13.87 0.7c0.24,4.68 0.37,9.38 0.44,14.06l13.89 -0.27z"/>
   <path class="fil0" d="M1042.63 504.01c0.21,-4.83 0.37,-9.66 0.46,-14.5l-13.89 -0.18c-0.09,4.7 -0.23,9.37 -0.44,14.07l13.87 0.61z"/>
   <path class="fil0" d="M1022.44 618.02c7.26,-23.31 12.53,-46.54 16.07,-70.7l-13.76 -1.92c-3.34,23.27 -8.58,46.06 -15.57,68.49l13.26 4.13z"/>
   <path class="fil0" d="M1001.52 672.13c2.03,-4.39 3.98,-8.81 5.88,-13.26l-12.8 -5.41c-1.84,4.32 -3.74,8.6 -5.7,12.87l12.62 5.8z"/>
   <path class="fil0" d="M988.49 698.07c2.34,-4.21 4.57,-8.58 6.74,-12.89l-12.44 -6.18c-2.09,4.15 -4.24,8.38 -6.5,12.43l12.2 6.64z"/>
   <path class="fil0" d="M698.38 921.96c4.7,-1.15 9.37,-2.37 14.03,-3.67l-3.79 -13.36c-4.53,1.26 -9.06,2.44 -13.62,3.56l3.38 13.47z"/>
   <path class="fil0" d="M669.96 927.94c4.76,-0.81 9.51,-1.78 14.24,-2.76l-2.87 -13.59c-4.59,0.95 -9.2,1.88 -13.81,2.67l2.44 13.68z"/>
   <path class="fil0" d="M554.34 933.47c24.11,1.85 48.36,1.95 72.46,-0.01l-1.14 -13.84c-23.38,1.9 -46.89,1.8 -70.28,0l-1.05 13.85z"/>
   <path class="fil0" d="M496.94 925.2c4.74,0.98 9.48,1.91 14.24,2.76l2.35 -13.69c-4.62,-0.81 -9.21,-1.72 -13.81,-2.67l-2.79 13.61z"/>
   <path class="fil0" d="M468.72 918.31c4.67,1.29 9.33,2.5 14.03,3.67l3.28 -13.5c-4.56,-1.13 -9.08,-2.31 -13.61,-3.56l-3.71 13.39z"/>
   <path class="fil0" d="M362.13 873.12c21.01,12.34 42.64,22.61 65.31,31.5l4.94 -12.98c-21.87,-8.51 -43,-18.63 -63.25,-30.52l-7 12z"/>
   <path class="fil0" d="M185.87 685.24c2.17,4.34 4.58,8.58 6.74,12.89l12.17 -6.71c-2.23,-4.11 -4.41,-8.26 -6.5,-12.44l-12.4 6.26z"/>
   <path class="fil0" d="M173.7 658.93c1.89,4.45 3.84,8.87 5.88,13.25l12.59 -5.87c-1.97,-4.26 -3.87,-8.54 -5.7,-12.87l-12.76 5.48z"/>
   <path class="fil0" d="M142.58 547.39c3.34,23.74 8.85,47.83 16.07,70.69l13.24 -4.2c-7,-22.08 -12.35,-45.56 -15.57,-68.49l-13.74 2.01z"/>
   <path class="fil0" d="M137.99 489.58c0.08,4.83 0.23,9.67 0.46,14.5l13.87 -0.7c-0.24,-4.68 -0.37,-9.38 -0.44,-14.06l-13.89 0.27z"/>
   <path class="fil0" d="M138.44 460.57c-0.22,4.83 -0.37,9.66 -0.46,14.5l13.89 0.18c0.09,-4.7 0.23,-9.37 0.44,-14.06l-13.87 -0.61z"/>
   <path class="fil0" d="M158.63 346.57c-7.27,23.17 -12.57,46.67 -16.07,70.7l13.76 1.92c3.29,-23.14 8.58,-46.2 15.57,-68.49l-13.26 -4.13z"/>
   <path class="fil0" d="M179.54 292.46c-2.02,4.39 -3.98,8.8 -5.87,13.26l12.8 5.41c1.84,-4.32 3.74,-8.6 5.7,-12.86l-12.62 -5.8z"/>
   <path class="fil0" d="M192.58 266.51c-2.3,4.27 -4.57,8.56 -6.74,12.89l12.44 6.18c2.09,-4.17 4.26,-8.3 6.48,-12.4l-12.18 -6.67z"/>
   <path class="fil0" d="M589.39 29.68c95.21,0 183.56,29.41 256.45,79.62l-17.92 4.73c-68.67,-44.57 -150.57,-70.46 -238.54,-70.46 -121.15,0 -230.83,49.11 -310.22,128.5 -30.26,30.26 -56.11,64.93 -76.53,102.94l-15.96 0.49c21.61,-42 49.59,-80.17 82.67,-113.25 81.9,-81.9 195.06,-132.57 320.04,-132.57zm408.44 647.84c-22.3,46.56 -52.31,88.72 -88.4,124.8 -51.64,51.64 -115.71,90.86 -187.33,112.79l0.85 -14.82c67.44,-21.53 127.8,-58.91 176.67,-107.79 32.2,-32.2 59.41,-69.37 80.39,-110.28l17.83 -4.7zm-602.53 213.75c-47.02,-22.35 -89.57,-52.57 -125.95,-88.95 -34.87,-34.87 -64.06,-75.4 -86.11,-120.09l15.3 -0.47c21.01,41.09 48.31,78.43 80.63,110.74 33.95,33.95 73.44,62.35 117,83.76l-0.86 15.01z"/>
  </g>
  <g id="_2540549677584">
   <path class="fil0" d="M298.54 234.85c-2.64,3.13 -5.23,6.27 -7.78,9.47l9.2 7.3c2.48,-3.1 4.99,-6.16 7.56,-9.19l-8.98 -7.57z"/>
   <path class="fil0" d="M315.02 216.65c-2.83,2.94 -5.67,5.94 -8.4,8.98l8.76 7.83c2.72,-2.8 5.37,-5.82 8.11,-8.67l-8.46 -8.15z"/>
   <path class="fil0" d="M391.4 155.41c-17.38,10.47 -34.17,22.86 -49.61,36.02l7.65 8.91c14.9,-12.73 31.28,-24.78 48.07,-34.9l-6.12 -10.03z"/>
   <path class="fil0" d="M434.81 132.59c-3.75,1.65 -7.43,3.54 -11.15,5.19l5.19 10.54c3.56,-1.72 7.14,-3.41 10.76,-5l-4.81 -10.72z"/>
   <path class="fil0" d="M457.51 123.32c-3.83,1.43 -7.64,2.9 -11.42,4.45l4.46 10.87c3.68,-1.5 7.37,-2.93 11.09,-4.32l-4.13 -10.99z"/>
   <path class="fil0" d="M552.94 101.36c-20.33,1.97 -40.59,5.61 -60.33,10.84l3.04 11.35c19.07,-5.07 38.81,-8.59 58.46,-10.5l-1.17 -11.69z"/>
   <path class="fil0" d="M601.95 99.73c-4.09,-0.12 -8.18,-0.18 -12.26,-0.17l0.05 11.74c3.96,-0.02 7.94,0.05 11.9,0.17l0.31 -11.74z"/>
   <path class="fil0" d="M626.43 101.24c-4.07,-0.37 -8.14,-0.69 -12.23,-0.95l-0.69 11.72c3.96,0.26 7.91,0.56 11.87,0.92l1.06 -11.69z"/>
   <path class="fil0" d="M721.95 122.71c-19.41,-7.04 -38.83,-12.39 -59.1,-16.31l-2.15 11.55c19.52,3.72 38.57,9.04 57.25,15.81l4 -11.04z"/>
   <path class="fil0" d="M766.85 142.48c-3.63,-1.88 -7.29,-3.7 -10.97,-5.48l-5.07 10.6c3.58,1.72 7.12,3.49 10.65,5.32l5.39 -10.44z"/>
   <path class="fil0" d="M966.14 408.24c-0.79,-4.02 -1.63,-8.01 -2.56,-11.99l-11.43 2.68c0.88,3.87 1.7,7.74 2.48,11.64l11.51 -2.33z"/>
   <path class="fil0" d="M970.09 432.48c-0.5,-4.05 -1.13,-8.1 -1.78,-12.13l-11.59 1.89c0.63,3.91 1.23,7.84 1.72,11.77l11.65 -1.53z"/>
   <path class="fil0" d="M970.28 530.36c2.5,-20.29 3.52,-40.78 2.8,-61.21l-11.74 0.43c0.7,19.82 -0.3,39.69 -2.72,59.37l11.66 1.42z"/>
   <path class="fil0" d="M961.07 578.53c1.01,-3.97 1.98,-7.93 2.88,-11.93l-11.48 -2.52c-0.87,3.87 -1.81,7.71 -2.79,11.56l11.39 2.88z"/>
   <path class="fil0" d="M954.15 602.09c1.27,-3.89 2.48,-7.78 3.65,-11.71l-11.27 -3.3c-1.13,3.8 -2.3,7.58 -3.54,11.35l11.16 3.65z"/>
   <path class="fil0" d="M723.6 841.25c3.83,-1.43 7.64,-2.9 11.42,-4.45l-4.47 -10.86c-3.68,1.5 -7.37,2.93 -11.09,4.32l4.13 11z"/>
   <path class="fil0" d="M628.17 863.21c20.19,-1.9 40.74,-5.63 60.34,-10.84l-3.04 -11.34c-18.93,5.05 -38.96,8.66 -58.46,10.5l1.16 11.69z"/>
   <path class="fil0" d="M579.17 864.85c4.09,0.12 8.17,0.18 12.26,0.17l-0.06 -11.74c-3.96,0.02 -7.94,-0.05 -11.9,-0.17l-0.31 11.74z"/>
   <path class="fil0" d="M554.68 863.34c4.07,0.37 8.14,0.69 12.22,0.94l0.69 -11.72c-3.96,-0.26 -7.91,-0.56 -11.86,-0.92l-1.06 11.7z"/>
   <path class="fil0" d="M459.16 841.86c19.29,7.04 38.93,12.43 59.09,16.31l2.16 -11.55c-19.42,-3.68 -38.69,-9.04 -57.25,-15.81l-4 11.04z"/>
   <path class="fil0" d="M414.26 822.1c3.63,1.88 7.28,3.7 10.97,5.48l5.07 -10.6c-3.58,-1.72 -7.12,-3.49 -10.65,-5.31l-5.39 10.44z"/>
   <path class="fil0" d="M208.18 465.71c3.69,-80.43 31.96,-153.92 77.2,-213.55l3.3 15.32c-40.31,56.28 -65.36,124.46 -68.77,198.76 -4.7,102.34 32.53,196.89 96.52,267.04 24.39,26.73 52.67,49.91 83.99,68.64l-0.2 13.5c-34.64,-19.88 -65.8,-45 -92.46,-74.22 -66.01,-72.36 -104.42,-169.91 -99.57,-275.48zm563.09 -319.91c38.46,20.64 72.91,47.63 102,79.52 41.62,45.63 72.26,101.27 88.01,162.62l-12.49 -1.29c-15.57,-57.8 -44.81,-110.24 -84.2,-153.41 -25.95,-28.44 -56.3,-52.87 -90.04,-72.18l-3.28 -15.25zm157.2 517.26c-20.7,38.85 -47.88,73.63 -80.02,102.94 -30.8,28.1 -66.17,51.19 -104.78,68.09l0.2 -12.94c35.52,-16.16 68.12,-37.77 96.67,-63.81 29.99,-27.36 55.52,-59.62 75.29,-95.58l12.65 1.31z"/>
  </g>
  <circle class="fil1" cx="590.54" cy="482.29" r="319.29"/>
  <path class="fil2" d="M514.1 1072.07l0 38.02 75.34 46.35 75.34 -46.35 0 -38.02 -75.34 46.35 -75.34 -46.35zm0 -61.46l0 38.02 75.34 46.35 75.34 -46.35 0 -38.02 -75.34 46.35 -75.34 -46.35z"/>
  <path class="fil3" d="M517.29 380.73c13.3,0 24.09,22.2 24.09,49.59 0,27.39 -10.79,49.6 -24.09,49.6 -13.3,0 -24.09,-22.2 -24.09,-49.6 0,-27.39 10.79,-49.59 24.09,-49.59zm253.24 157.06c-21.22,56.86 -94.13,101.17 -180.83,101.17 -85.87,0 -158.22,-43.46 -180.21,-99.53 -1.19,0.84 -2.32,1.69 -3.31,2.5 -2.04,1.67 -3.43,3.19 -5.11,4.8 -1.67,1.61 -3.62,3.33 -5.33,3.91 -1.71,0.58 -3.19,0.03 -4.23,-1.04 -1.04,-1.06 -1.65,-2.64 -1.82,-4.45 -0.17,-1.81 0.11,-3.85 0.85,-5.85 0.75,-2 1.97,-3.94 3.87,-6.06 1.9,-2.12 4.48,-4.4 6.92,-6.51 2.44,-2.1 4.74,-4.03 7.65,-5.67 2.9,-1.63 6.41,-2.97 9.24,-4.02 2.83,-1.04 5,-1.79 6.87,-2.11 1.87,-0.31 3.44,-0.2 4.63,0.09 1.18,0.29 1.97,0.74 2.74,1.18 0.78,0.44 1.55,0.88 1.93,2.13 0.39,1.25 0.39,3.32 -0.83,5.26 -1.21,1.95 -3.63,3.78 -6.1,5.26 -2.46,1.47 -4.98,2.59 -7.3,3.82 -0.33,0.17 -0.66,0.35 -0.98,0.53 29.35,49.75 94.66,89.65 170.53,89.65 76.57,0 142.37,-40.63 171.32,-91.02l-0.09 -0.05c-2.32,-1.23 -4.83,-2.35 -7.3,-3.82 -2.47,-1.47 -4.89,-3.3 -6.1,-5.25 -1.21,-1.95 -1.21,-4.02 -0.83,-5.26 0.38,-1.25 1.15,-1.69 1.93,-2.13 0.78,-0.44 1.56,-0.9 2.74,-1.18 1.18,-0.29 2.76,-0.41 4.63,-0.09 1.87,0.31 4.04,1.06 6.87,2.11 2.83,1.04 6.34,2.38 9.24,4.02 2.9,1.63 5.2,3.56 7.65,5.67 2.44,2.11 5.02,4.39 6.92,6.5 1.9,2.11 3.12,4.06 3.87,6.06 0.75,2 1.02,4.04 0.85,5.85 -0.17,1.81 -0.78,3.39 -1.82,4.44 -1.04,1.06 -2.52,1.62 -4.23,1.04 -1.71,-0.58 -3.66,-2.29 -5.33,-3.91 -1.67,-1.61 -3.07,-3.13 -5.11,-4.8 -1.28,-1.05 -2.82,-2.17 -4.38,-3.24zm-105.86 -157.06c13.31,0 24.09,22.2 24.09,49.59 0,27.39 -10.78,49.6 -24.09,49.6 -13.3,0 -24.09,-22.2 -24.09,-49.6 0,-27.39 10.79,-49.59 24.09,-49.59z"/>
 </g>
</svg>
