<?xml version="1.0" encoding="UTF-8"?>
<!DOCTYPE svg PUBLIC "-//W3C//DTD SVG 1.1//EN" "http://www.w3.org/Graphics/SVG/1.1/DTD/svg11.dtd">
<!-- Creator: CorelDRAW 2018 (64-Bit Evaluation Version) -->
<svg xmlns="http://www.w3.org/2000/svg" xml:space="preserve" width="1.5748in" height="1.5748in" version="1.1" style="shape-rendering:geometricPrecision; text-rendering:geometricPrecision; image-rendering:optimizeQuality; fill-rule:evenodd; clip-rule:evenodd"
viewBox="0 0 1574.8 1574.8"
 xmlns:xlink="http://www.w3.org/1999/xlink">
 <defs>
  <style type="text/css">
   <![CDATA[
    .fil1 {fill:#727376}
    .fil0 {fill:#ED3237}
   ]]>
  </style>
 </defs>
 <g id="Layer_x0020_1">
  <metadata id="CorelCorpID_0Corel-Layer"/>
  <g id="_2654994008080">
   <g>
    <path class="fil0" d="M601.27 347.54l0 58.35c0,8.94 9.1,16.26 15.77,19.51 18.19,8.85 37.91,5.81 57.48,4.63 -0.2,-9.76 -8.55,-31.77 4.13,-53.95 26.33,-46.09 84.71,-47.73 112.99,-9.94 11.54,15.42 19.26,43.12 10.45,61.46 46.42,0 91.81,-2.74 138.41,-2.71 13.3,0.01 21.27,-1.41 33.92,-1.36 11.55,0.04 23.86,0.39 35.33,0.05l33.88 -1.4c11.41,0 24.67,0.8 33.93,-1.36 0,-31.94 0.84,-38.83 15.48,-57.8 4.7,-6.09 13.45,-12.27 20.68,-15.96 37.57,-19.18 81.81,0.8 93.97,38.62 1.73,5.39 2.5,8.06 2.96,14.8l-0.1 16.28c23.94,-1.99 42.07,-25.22 42.07,-51.56 0,-29.8 -0.84,-18.2 -6.23,-38.56 -2.59,-9.79 -2.34,-20.74 -3.49,-31.79 -3.12,-30.11 -1.52,-46.35 -24.21,-46.35 -2.76,-5.21 -4.19,-7.85 -7.91,-12.45l-23.11 -20.31c-4.33,-3.51 -7.46,-6.69 -12.4,-9.31 0,-26.35 -6.96,-18.87 -34.04,-24.31 -81.57,-16.39 -181.26,-33.17 -262.35,-2.05 -4.62,1.77 -8.07,2.91 -11.85,4.43 -13.86,5.58 -22.61,10.87 -34.61,16.95l-41.56 26.29c-6.84,5.15 -13.58,9.85 -19.62,15.67 -11.26,10.85 -31.75,13.87 -49.97,17.87 -27.77,6.11 -81.43,14.81 -97.72,39.33 -3.78,5.69 -0.08,3.2 -6.68,9.61 -7.04,6.83 -9.85,13.53 -11.87,23.42 -0.36,1.76 -0.79,3.81 -1.67,6.48 -1.07,3.28 -2.06,3.5 -2.06,7.43z"/>
    <path class="fil0" d="M681.33 401.82l0 9.5c0,26.27 26.65,52.92 52.92,52.92 20.93,0 32,-3.61 46.51,-18.63 21.85,-22.63 18.78,-60.59 -2.02,-80.13 -23.03,-21.63 -55.48,-21.21 -79.22,-1.1 -9.01,7.63 -18.19,24.27 -18.19,37.44z"/>
    <path class="fil0" d="M1087.06 401.82l0 9.5c0,26.35 26.71,52.92 52.92,52.92l8.14 0c26.27,0 52.92,-26.65 52.92,-52.92 0,-12.74 0.47,-18.99 -5.85,-30.79 -18.14,-33.87 -60.43,-41.77 -90.13,-16.34 -8.5,7.28 -18.01,24.2 -18.01,37.63z"/>
   </g>
   <path class="fil1" d="M104.48 995.99l0 -305.75 340.04 0 0 325.75c0,24.35 -7.83,46.46 -16.14,63.87 -54.45,114.08 -206.89,125.97 -277.83,41.52 -31.85,-37.92 -46.06,-71.3 -46.06,-125.39zm382.5 -940.09l740.47 0 121.56 0c24.15,3.3 24.27,14.61 24.17,48.57l-0 585.78c0,21.13 -5.34,80.66 3.48,93.67 20.66,30.46 109.81,87.65 134.09,160.22 4.19,12.51 6.7,27.44 8.15,43.75l0 142.4 0 6.07 0 6.07 0 6.07 0 6.07 0 6.07 0 6.07 0 6.07 0 6.07 0 6.07 0 6.07 0 6.07 0 6.07 0 6.07 0 6.07 0 6.07 0 6.07 0 6.07 0 6.07 0 6.07 0 6.07 0 6.07 0 6.07 0 6.07 0 6.07 0 6.07 0 6.07 0 6.07 0 6.07 0 6.07 0 6.07 0 6.07 0 6.07 0 6.07 0 6.07 0 6.07 0 6.07 0 6.07 0 6.07 0 6.07 0 6.07 0 6.07 0 6.07 0 6.07 0 6.07 0 6.07 0 6.07 0 6.07 0 6.07 0 6.07 0 6.07 0 6.07 0 6.07 0 6.07 0 6.07 0 6.07 0 6.07 0 6.07 0 6.07 0 6.07 0 6.07 0 6.07 0 6.07 0 6.07 0 6.07 -48.57 0c0,-127.63 0,-255.26 0,-382.9 0,-57.48 7.77,-138.68 -9.72,-181.72 -11.66,-28.7 -62.74,-84.62 -87.43,-101.16l0.69 147.9c3.77,13.65 38.45,35.08 45.74,51.56 10.06,22.72 -15.1,53.98 -42.97,25.68l-121.33 -121.55c-12.41,-12.41 -34.68,-44.17 -57.3,-30.36 -29.98,18.31 9.45,51.1 17.29,58.94 139.16,139.11 119,105.49 84.8,157.66 -29.44,44.91 -27.65,104.1 4.85,147.02 6.44,8.5 17.55,18.95 19.17,29.68 2.22,14.65 -8.32,25.94 -19.93,27.81 -38.01,6.11 -73.88,-87.4 -73.88,-120l-128.59 0c0,16.87 -3.34,23.77 -3.01,42.94 0.59,34.24 12.11,72.79 27.79,100.87 21.53,38.56 27.09,29.46 26.74,61.84 -0.3,28.57 -0.09,57.23 -0.09,85.81l-48.57 0c0,-107.59 8.4,-68.46 -18.08,-116.22 -40.15,-72.41 -36.21,-100.82 -36.21,-175.24l-740.07 0c-74.14,0 -132.47,-7.69 -185.02,-60.72 -55.41,-55.9 -69.29,-96.55 -69.29,-179.31l0 -3.84 0 -3.84 0 -3.84 0 -3.84 0 -3.84 0 -3.84 0 -3.84 0 -3.84 0 -3.84 0 -3.84 0 -3.84 0 -3.84 0 -3.84 0 -3.84 0 -3.84 0 -3.84 0 -3.84 0 -3.84 0 -3.84 0 -3.84 0 -3.84 0 -3.84 0 -3.84 0 -3.84 0 -3.84 0 -3.84 0 -3.84 0 -3.84 0 -3.84 0 -3.84 0 -3.84 0 -3.84 0 -3.84 0 -3.84 0 -3.84 0 -3.84 0 -3.84 0 -3.84 0 -3.84 0 -3.84 0 -3.84 0 -3.84 0 -3.84 0 -3.84 0 -3.84 0 -3.84 0 -3.84 0 -3.84 0 -3.84 0 -3.84 0 -3.84 0 -3.84 0 -3.84 0 -3.84 0 -3.84 0 -3.84 0 -3.84 0 -3.84 0 -3.84 0 -3.84 0 -3.84 0 -3.84 0 -3.84 0 -3.84 0 -77.12c2.3,-12.86 8.22,-20.41 22.02,-23.73 20.09,-4.83 330.37,-2.02 366.59,-2.02l0 -488.62c0,-89.43 -6.04,-94.12 42.46,-94.29zm777.62 1048.68c-12.77,24.13 -24.24,40.56 -31.43,71.43l-814.37 0c21.52,-32.15 77.15,-64.83 77.15,-171.44l0 -900.09 825.8 0 0 845.8c-30.45,-20.39 -59.97,-77.15 -108.58,-77.15 -65.49,0 -96.59,72.05 -58.89,121.75 9.93,13.08 99.13,102.21 110.32,109.7z"/>
   <path class="fil1" d="M615.96 975.99c0,6.59 1.99,8.57 8.57,8.57l448.61 0c13.42,0 8.57,-17.56 8.57,-51.43l-465.76 0 0 42.86z"/>
   <polygon class="fil1" points="615.96,593.09 958.85,593.09 958.85,541.66 615.96,541.66 "/>
   <path class="fil1" d="M615.96 647.39l0 42.86 342.89 0c0,-33.88 4.84,-51.43 -8.57,-51.43l-325.74 0c-6.59,0 -8.57,1.99 -8.57,8.57z"/>
   <polygon class="fil1" points="615.96,884.55 958.85,884.55 958.85,835.98 615.96,835.98 "/>
   <polygon class="fil1" points="615.96,787.4 910.27,787.4 910.27,738.82 615.96,738.82 "/>
   <path class="fil1" d="M1127.44 647.39l0 42.86 100.01 0c0,-66.21 18.43,-51.43 -91.44,-51.43 -6.59,0 -8.57,1.99 -8.57,8.57z"/>
   <path class="fil1" d="M1127.44 550.23l0 42.86 100.01 0 0 -51.44 -91.44 0c-6.59,0 -8.57,1.99 -8.57,8.57z"/>
   <polygon class="fil1" points="1127.44,787.4 1227.45,787.4 1227.45,738.82 1127.44,738.82 "/>
  </g>
 </g>
</svg>
