<?xml version="1.0" encoding="UTF-8"?>
<!DOCTYPE svg PUBLIC "-//W3C//DTD SVG 1.1//EN" "http://www.w3.org/Graphics/SVG/1.1/DTD/svg11.dtd">
<!-- Creator: CorelDRAW 2018 (64-Bit Evaluation Version) -->
<svg xmlns="http://www.w3.org/2000/svg" xml:space="preserve" width="1.5748in" height="1.5748in" version="1.1" style="shape-rendering:geometricPrecision; text-rendering:geometricPrecision; image-rendering:optimizeQuality; fill-rule:evenodd; clip-rule:evenodd"
viewBox="0 0 1574.8 1574.8"
 xmlns:xlink="http://www.w3.org/1999/xlink">
 <defs>
  <style type="text/css">
   <![CDATA[
    .fil0 {fill:#FEFEFE}
   ]]>
  </style>
 </defs>
 <g id="Layer_x0020_1">
  <metadata id="CorelCorpID_0Corel-Layer"/>
  <g id="_2654993611920">
   <path class="fil0" d="M516.26 1272.63c-53.83,53.67 -9.73,9.81 -63.25,63.8l-32.65 -31.72 -20.61 19.66 52.41 53.25c74.62,-74.07 52.98,-50.09 126.49,-125.18l-20.63 -19.66 -41.76 39.85z"/>
   <path class="fil0" d="M516.26 1034.04c-53.83,53.67 -9.73,9.81 -63.25,63.79l-32.65 -31.72 -20.61 19.66 52.41 53.25c74.62,-74.07 52.98,-50.09 126.49,-125.17l-20.63 -19.67 -41.76 39.86z"/>
   <path class="fil0" d="M270.89 250.23c332.91,0 700.11,0 1033.02,0l0 1159.74 -1033.02 0 0 -1159.74zm-82.64 1242.39l1198.31 0 0 -1327.78 -181.81 0 0 -82.65 -85.4 0 0 82.65 -104.68 0 0 -82.65 -82.64 0 0 82.65 -289.24 0 0 -82.65 -82.64 0 0 82.65 -104.68 0 0 -82.65 -85.39 0 0 82.65 -181.81 0 0 1327.78z"/>
   <path class="fil0" d="M723.3 1289.97l0 24.83c0,2.29 2.88,2.98 12.41,2.98l471.78 0 0 -30.78 -471.78 0c-9.54,0 -12.41,0.69 -12.41,2.98z"/>
   <path class="fil0" d="M723.3 1099.59c0,2.29 2.88,2.98 12.41,2.98l459.36 0c9.54,0 12.42,-0.69 12.42,-2.98l0 -27.8 -484.19 0 0 27.8z"/>
   <polygon class="fil0" points="723.3,889.04 1207.49,889.04 1207.49,859.25 723.3,859.25 "/>
   <g>
    <path class="fil0" d="M483.51 675.72c82.62,0 149.6,66.98 149.6,149.6 0,82.62 -66.98,149.6 -149.6,149.6 -82.62,0 -149.6,-66.98 -149.6,-149.6 0,-82.62 66.98,-149.6 149.6,-149.6zm0 50.15c54.93,0 99.45,44.52 99.45,99.45 0,54.93 -44.53,99.45 -99.45,99.45 -54.93,0 -99.45,-44.53 -99.45,-99.45 0,-54.93 44.52,-99.45 99.45,-99.45z"/>
    <path class="fil0" d="M587.32 717.24c-2.15,3.98 -24.78,26.58 -28.76,28.67 -31.46,-27.81 -70.53,-37.74 -111.5,-23.32 -13.91,4.89 -20.61,10.83 -30.2,16.44l14.65 14.65c1.76,-1.26 3.74,-2.96 7.78,-5.14 26.36,-14.24 51.47,-16.46 80.57,-4.67 6.81,2.76 20.41,11.02 24.23,16.72l-69.56 70.17 -22.91 -22.26 -14.47 13.8 36.78 37.37 84.32 -83.7c9.98,18.31 15.97,31.71 14.76,55.71 -0.76,15.05 -5.83,27.16 -12.46,39.34 -1.02,1.86 -2.34,3.66 -3.57,5.39l14.49 14.48c10.93,-18.68 20.83,-30.66 21.82,-61.59 0.59,-18.3 -3.73,-38.17 -12.16,-53.97 -2.99,-5.59 -6.26,-9.82 -8.53,-14.31 4.49,-1.82 21.91,-23.94 29.31,-28.14l29.19 -29.81 -14.47 -13.8 -29.31 27.97z"/>
    <path class="fil0" d="M536.27 897.57c-5.46,3.61 -10.7,7.68 -20.91,11.36 -72,25.97 -140.31,-41.43 -115.08,-113.87 3.3,-9.49 6.81,-14.62 10.13,-19.5l-14.81 -14.81c-13.81,15.76 -22.17,49.02 -20.65,72.14 3.58,54.44 46.2,97.44 100.45,101.59 24.57,1.88 60.33,-7.24 75.36,-22.43l-14.49 -14.48z"/>
   </g>
   <g>
    <g>
     <path class="fil0" d="M512.39 586c-13.93,0 -28.48,-5.98 -38.38,-15.01 -32.32,-29.48 -15.78,-93.39 38.38,-93.39 58.62,0 72.22,81.22 22.02,102.91 -4.22,1.82 -17.18,5.49 -22.02,5.49zm469.18 -53.39c0,-70.31 108.4,-75.91 108.4,1.62 0,13.78 -8.55,28.91 -15.7,36.07 -36.19,36.19 -92.7,4.06 -92.7,-37.69zm-558.16 -1.62l-21.03 0 0 -66.33c0,-17.99 9.35,-26.99 21.56,-33.45 38.93,-20.61 85.72,-36.12 133.76,-36.12l255.62 0 0 135.9 -218.41 0c0,-26.16 -10.76,-47.42 -27.11,-61.88 -24.69,-21.85 -62.33,-28.26 -93.21,-13.14 -22.25,10.9 -41.66,34.69 -45.69,59.47 -1.26,7.75 1.85,15.54 -5.49,15.54zm708.62 -95.45l40.45 0c0,67.72 7.02,69.36 -25.89,82.51 -6.38,2.54 -11.83,4.83 -18.41,7.76 -12.59,5.62 -7.76,-3.41 -10.09,-13.25 -6.28,-26.53 -25.34,-47.76 -47.53,-57.63 -57,-25.34 -118.12,17.22 -118.12,76.05l-108.4 0 0 -135.9 147.23 0c13.87,0 18.97,-10.07 26.29,-17.39 6.64,-6.64 17.53,-16 22.25,-23.06 9.35,4.95 18.41,9.64 27.5,14.56 30.94,16.74 16.99,11.06 66.24,17.89 12,1.67 25.9,4.76 38.92,4.76l0 14.56 -40.45 0 0 29.12zm-318.72 -122.96l0 51.77 -186.06 0c6.16,-5.35 32.15,-16.12 39.29,-18.95 31.19,-12.4 58.78,-21.18 92.91,-26.81 14.7,-2.43 36.45,-6.01 53.85,-6.01zm173.11 51.77l-142.37 0 0 -51.77c60.06,0 78.49,2.67 133.94,18.14 5.13,1.43 9.99,3.08 15.93,5.1 6.48,2.21 10.27,4.37 16.77,5.88 -2.74,4.1 -19.35,22.65 -24.27,22.65zm-611.55 82.51l0 105.16c0,9.61 14.32,8.14 24.26,8.09 11.32,-0.05 22.66,-0 33.98,-0 3.12,13.38 16.26,29.64 26.1,37 58.46,43.69 122.18,0.15 130.83,-37l367.26 0c8.63,18 8.73,21.15 27.09,37.62 40.55,36.36 118.07,12.9 129.84,-37.62 12.65,0 45.44,-14.26 57.74,-19.92 16.05,-7.39 31.24,-25.44 31.24,-48.03l0 -111.63c0,-17.5 -20.22,-17.26 -35.87,-19.13 -8.18,-0.98 -67.33,-8.65 -73,-11.14l-17.3 -10.2c-82.25,-42.74 -141.66,-58.22 -245.94,-58.22 -46.96,0 -99.51,9.06 -134.5,20.81 -20.35,6.83 -37.87,13.02 -56.39,21.27l-76.54 39.95c-9.52,2.33 -26.39,1.81 -35.62,3.21 -41.63,6.29 -111.23,23.67 -139.87,54.27 -4.05,4.32 -13.32,18.33 -13.32,25.51z"/>
     <polygon class="fil0" points="717.86,435.54 774.49,435.54 774.49,406.42 717.86,406.42 "/>
    </g>
    <path class="fil0" d="M873.28 354.31l87.14 0c3.01,0 13.18,-11.35 14.85,-13.86 -3.98,-0.93 -6.3,-2.25 -10.26,-3.6 -3.63,-1.24 -6.61,-2.25 -9.75,-3.12 -33.94,-9.47 -45.23,-11.1 -81.98,-11.1l0 31.69z"/>
    <path class="fil0" d="M791.94 354.31l0 -31.69c-10.65,0 -23.96,2.19 -32.96,3.68 -20.89,3.45 -37.78,8.82 -56.87,16.41 -4.37,1.74 -20.28,8.33 -24.04,11.6l113.88 0z"/>
    <path class="fil0" d="M1081.04 533.86c0,-64.74 -90.52,-60.07 -90.52,-1.35 0,34.87 47.19,61.69 77.41,31.47 5.98,-5.98 13.11,-18.62 13.11,-30.12z"/>
    <path class="fil0" d="M530.62 572.48c41.93,-18.11 30.57,-85.94 -18.39,-85.94 -45.23,0 -59.04,53.37 -32.05,77.99 8.26,7.54 20.42,12.53 32.05,12.53 4.04,0 14.87,-3.06 18.39,-4.58z"/>
   </g>
  </g>
 </g>
</svg>
